<svg xmlns="http://www.w3.org/2000/svg" viewBox="0 0 1201 5000"><defs><style>.a{fill:#85ffad;}.b{fill:#53f2e5;}</style></defs><title>bg</title><path class="a" d="M828.79,953.88C776.22,803.3,526,823.48,477.23,740.79c-44.94-76.26,5.11-263.14-36.14-340.94C382.37,289.1,96.66,71.62,0,0V1797c70.66-34.31,155.36-82.83,165.1-122.17,15-60.46-105.14-141.35-88.71-235.11C123.57,1170.44,896.63,1148.22,828.79,953.88Z"/><path class="b" d="M372.21,3212.88c52.57-150.58,302.82-130.4,351.56-213.09,44.94-76.26-5.11-263.14,36.14-340.94C818.63,2548.1,1104.34,2330.62,1201,2259V4056c-70.66-34.31-155.36-82.83-165.1-122.17-15-60.46,105.14-141.35,88.71-235.11C1077.43,3429.44,304.37,3407.22,372.21,3212.88Z"/><path class="b" d="M256.72,529.13c100-292-89.21-466.66-176.8-529.13H0V1045c145.91-19.2,476.52-75,458.27-184.95C433.08,708.28,128.7,902.91,256.72,529.13Z"/><path class="a" d="M1201,0H760.35c-100.82,199.94-72.2,495.62,81.15,564.49C948,612.32,1107,583.76,1200.5,553l.5-.17Z"/><path class="b" d="M1201,0H918c-68.86,154.56-35.71,322.69,103,376.32,51.42,19.88,114.68,28.46,180,26.49Z"/><path class="a" d="M1201,1220.37c-150.45,13.46-428.64,67.12-612.59,275.29C497.53,1598.52,540,1820.18,805.07,1955.4c66.06,33.7,231.34,61.27,395.93,81.6Z"/><path class="b" d="M1201,1346.62c-86.66,28-185.88,81.65-260.54,184.1-57.48,78.87-30.6,248.82,137,352.5,24.2,15,69.48,28.36,123.52,40Z"/><path class="b" d="M833,5000c-201.37-76.69-460.63-194.43-517.14-309.45-66.24-134.82,84.76-468.61,59.48-598.31C345.82,3940.8,116.26,3760,0,3677V5000Z"/><path class="a" d="M315,5000c-90.57-87.88-166.3-177.42-174.58-237.32-31.74-229.8,175-434,106.76-569C187.12,4074.67,81.61,3982.91,0,3925V5000Z"/><path class="a" d="M450,2893c-48-221-254.31-223.2-267-333-13.91-120.38,144-249,105-402-47.8-187.54-186.81-224.44-288-224.69v1317C152.17,3187,480.4,3033,450,2893Z"/><path class="b" d="M78,2621c-27-115.41,120.19-373.66,54-471-33.55-49.34-82-77.37-132-92.76V3114c140.45-47.48,310.37-122.27,318-208C326.42,2811.41,99.62,2713.47,78,2621Z"/><path class="b" d="M1201,4223.79c-177.72,34.47-535,123.93-535,286.21,0,129.93,326.38,271.93,535,349.43Z"/><path class="a" d="M1201,4280.46c-155,48.84-307,123.7-307,229.54,0,87.24,147.15,179.93,307,254.88Z"/><path class="a" d="M1201,2616.78c-57.56,31.23-123.59,71.91-189.6,122.86C840,2871.95,811.1,3022.52,846,3119.72c30.77,85.59,226.2,202.17,355,271.28Z"/></svg>