<svg xmlns="http://www.w3.org/2000/svg" viewBox="0 0 1201 262.31"><defs><style>.a{fill:none;stroke:#e6e6e6;stroke-miterlimit:10;}</style></defs><title>bg3</title><path class="a" d="M56.08,97.67C53.9,78.9,29.43,57.43.5,38.27V154.19C21.49,135.33,58.23,116.14,56.08,97.67Z" transform="translate(0 1.31)"/><path class="a" d="M179.58,260.5c-71.76-17.2-141.19-43.62-147.08-82-4.35-28.38,78.31-58.48,75-87C104,61.34,47.12,24.73.5-.48v261Z" transform="translate(0 1.31)"/><path class="a" d="M195.45,259.5c-70.28-17.22-137.18-43.35-142.95-81-4.35-28.38,78.31-58.48,75-87-3.5-30.17-60.42-66.8-107-92H.5v260Z" transform="translate(0 1.31)"/><path class="a" d="M253.58,260.5c-71.76-17.2-141.19-43.62-147.08-82-4.35-28.38,78.31-58.48,75-87C178,61.73,122.57,25.67,76.3.5H.5v260Z" transform="translate(0 1.31)"/><path class="a" d="M587.17,259.5c-60.24-87.15-139-180.72-196.67-176-46.35,3.79-81.9,128.88-128,135-28.18,3.74-75.57-46.13-104-46-37.49.17-99.19,26-158,55.46V259.5Z" transform="translate(0 1.31)"/><path class="a" d="M575.23,259.5c-58.42-81.87-130.76-163.42-184.73-159-46.35,3.79-81.9,128.88-128,135-28.18,3.74-75.57-46.13-104-46-37.49.17-99.19,26-158,55.46V259.5Z" transform="translate(0 1.31)"/><path class="a" d="M572.83,259.5c-56.64-77.27-124.22-150.18-175.33-146-46.35,3.79-81.9,128.88-128,135-28.18,3.74-75.57-46.13-104-46-38.14.17-101.34,26.92-161.07,57Z" transform="translate(0 1.31)"/><path class="a" d="M566.6,260.5c-53.45-69.78-114.21-130.84-161.1-127-40.28,3.3-72.4,98.18-110.38,127Z" transform="translate(0 1.31)"/><path class="a" d="M248.58,260.5c-25.53-13.3-55-38.09-75.08-38-29.8.13-74.91,16.5-121.7,38Z" transform="translate(0 1.31)"/><path class="a" d="M594.27.5c25.31,20.41,51.55,43.47,69.23,40,17.53-3.44,36.1-20,55-40Z" transform="translate(0 1.31)"/><path class="a" d="M305.93.5c23.07,33,46.16,59,63.57,63,28,6.43,74.92-33.64,116-63Z" transform="translate(0 1.31)"/><path class="a" d="M902.63.5c17,23.31,33.86,41.16,50.87,37C963.61,35,970.73,21,975.69.5Z" transform="translate(0 1.31)"/><path class="a" d="M270.73.5c32.72,55,72.3,111.92,98.77,118,42.27,9.72,127.94-86.81,171-92,32.08-3.87,91.29,75.22,123,69,33.14-6.51,70-59.83,105.92-95Z" transform="translate(0 1.31)"/><path class="a" d="M864,.5c30.05,38.79,59.59,99.3,89.45,92,17.7-4.33,26.26-44.09,30.06-92Z" transform="translate(0 1.31)"/><path class="a" d="M261.93.5c34.17,59.1,78.68,126.36,107.57,133,42.27,9.72,127.94-86.81,171-92,32.08-3.87,91.29,75.22,123,69C701.86,103,745.23,32.72,786.28.5Z" transform="translate(0 1.31)"/><path class="a" d="M851.17.5c34.53,35.15,68.22,115.34,102.33,107C973,102.73,981.42,54.86,984.58.5Z" transform="translate(0 1.31)"/><path class="a" d="M369.5,149.5c42.27,9.72,127.94-86.81,171-92,32.08-3.87,91.29,75.22,123,69C713.08,116.77,771,2.27,821.5.5H252.82C287.81,62.76,338,142.25,369.5,149.5Z" transform="translate(0 1.31)"/><path class="a" d="M821.5.5c45.08-1.58,88.19,133.72,132,123C974.92,118.26,983,61.15,985.36.5Z" transform="translate(0 1.31)"/><path class="a" d="M1200.5.5h-72.36C1123,16,1121.46,30,1125.5,40.9c6.84,18.36,43.59,19.33,75,23.63Z" transform="translate(0 1.31)"/><path class="a" d="M1200.5-.5H1083.68c-14.87,27.94-24,55.17-17.18,73.4,11.11,29.83,101.17,13.75,119,40.65,4.89,7.38-29,28.64-6,55.44a35.57,35.57,0,0,0,21,12.32Z" transform="translate(0 1.31)"/><path class="a" d="M1200.5.5H1059.15c-14.56,27.59-23.36,54.38-16.65,72.4,11.11,29.83,101.17,13.75,119,40.65,4.89,7.38-29,28.64-6,55.44,11.95,13.92,28.16,15.32,45,10.46Z" transform="translate(0 1.31)"/><path class="a" d="M1200.5,35.78,1179,.5H1062.12c-21.09,37.26-37,76.58-28.62,101,11.11,32.28,101.17,14.88,119,44,4.89,8-29,31-6,60,14.07,17.73,34,16.69,54,7.93Z" transform="translate(0 1.31)"/><path class="a" d="M1200.5,50.42,1167.55.5H1042c-19,32.3-32.31,65.34-24.47,86.4,11.11,29.83,101.17,13.75,119,40.65,4.89,7.38-29,28.64-6,55.44,17.85,20.8,45.23,13.65,70-.56Z" transform="translate(0 1.31)"/><path class="a" d="M1078.8,260.5c-15.19-14.9-31.13-28.34-42.3-32-46.35-15.2-147.29,17.17-195,7-57.26-12.21-164.49-94.95-202-50-8.84,10.59,1.71,40.57-6,52-28.93,42.91-199.13-51.15-207,0-1.3,8.43,1.42,16.07,7.23,23Z" transform="translate(0 1.31)"/><path class="a" d="M400.86,260.5H1044.7c-17.82-18.49-38.56-37.53-52.2-42-46.35-15.2-147.29,17.17-195,7-57.26-12.21-164.49-94.95-202-50-8.84,10.59,1.71,40.57-6,52-28.93,42.91-199.13-51.15-207,0C380.54,240.21,387.7,251.14,400.86,260.5Z" transform="translate(0 1.31)"/><path class="a" d="M554.47,260.5c-33.83-8.34-64.59-14.72-71.7,0Z" transform="translate(0 1.31)"/><path class="a" d="M998.24,260.5a36.32,36.32,0,0,0-6.85-3.23c-22.32-7.32-59.77-1.44-95.14,3.23Z" transform="translate(0 1.31)"/><path class="a" d="M656.27,260.5H818.76c-49.42-16-129.88-74.36-159.25-39.18C653.06,229.06,659,249.17,656.27,260.5Z" transform="translate(0 1.31)"/><path class="a" d="M407.65,260.5H1041c-19.57-21.39-46.81-48.54-63.45-54-46.35-15.2-147.29,17.17-195,7-57.26-12.21-164.49-94.95-202-50-8.84,10.59,1.71,40.57-6,52-28.93,42.91-199.13-51.15-207,0C364.64,234.08,381.24,248.85,407.65,260.5Z" transform="translate(0 1.31)"/><path class="a" d="M401.68,260.5h621.6c-19.59-22-51.25-54.93-69.78-61-46.35-15.2-147.29,17.17-195,7-57.26-12.21-164.49-94.95-202-50-8.84,10.59,1.71,40.57-6,52-28.93,42.91-199.13-51.15-207,0C340,231,365.16,247.94,401.68,260.5Z" transform="translate(0 1.31)"/></svg>