<svg width='200' height='200' fill="#000000" xmlns="http://www.w3.org/2000/svg" xmlns:xlink="http://www.w3.org/1999/xlink" version="1.1" x="0px" y="0px" viewBox="0 0 100 100" style="enable-background:new 0 0 100 100;" xml:space="preserve"><g><path d="M81,10c-5.5,0-10,4.5-10,10s4.5,10,10,10s10-4.5,10-10S86.5,10,81,10z M81,26c-3.3,0-6-2.7-6-6s2.7-6,6-6s6,2.7,6,6   S84.3,26,81,26z"/><path d="M81,40c-2.1,0-4.1,0.7-5.7,1.8L58.6,25.1c0.9-1.5,1.4-3.2,1.4-5.1c0-5.5-4.5-10-10-10s-10,4.5-10,10s4.5,10,10,10   c2.2,0,4.2-0.7,5.9-1.9l16.6,16.6c-1,1.5-1.5,3.3-1.5,5.3c0,5.5,4.5,10,10,10s10-4.5,10-10S86.5,40,81,40z M44,20c0-3.3,2.7-6,6-6   s6,2.7,6,6s-2.7,6-6,6S44,23.3,44,20z M81,56c-3.3,0-6-2.7-6-6s2.7-6,6-6s6,2.7,6,6S84.3,56,81,56z"/><path d="M50,60c5.5,0,10-4.5,10-10s-4.5-10-10-10s-10,4.5-10,10S44.5,60,50,60z M50,44c3.3,0,6,2.7,6,6s-2.7,6-6,6s-6-2.7-6-6   S46.7,44,50,44z"/><path d="M19,90c5.5,0,10-4.5,10-10s-4.5-10-10-10S9,74.5,9,80S13.5,90,19,90z M19,74c3.3,0,6,2.7,6,6s-2.7,6-6,6s-6-2.7-6-6   S15.7,74,19,74z"/><path d="M81,70c-4.8,0-8.9,3.4-9.8,8H59.8c-0.9-4.6-5-8-9.8-8c-3.1,0-5.9,1.4-7.7,3.7L25.8,57.3c1.9-1.8,3.2-4.4,3.2-7.3   c0-4.8-3.4-8.9-8-9.8V29.8c4.6-0.9,8-5,8-9.8c0-5.5-4.5-10-10-10S9,14.5,9,20c0,4.8,3.4,8.9,8,9.8v10.4c-4.6,0.9-8,5-8,9.8   c0,5.5,4.5,10,10,10c1.2,0,2.3-0.2,3.3-0.6l18,18C40.1,78.3,40,79.1,40,80c0,5.5,4.5,10,10,10c4.8,0,8.9-3.4,9.8-8h11.4   c0.9,4.6,5,8,9.8,8c5.5,0,10-4.5,10-10S86.5,70,81,70z M13,20c0-3.3,2.7-6,6-6s6,2.7,6,6s-2.7,6-6,6S13,23.3,13,20z M13,50   c0-3.3,2.7-6,6-6s6,2.7,6,6s-2.7,6-6,6S13,53.3,13,50z M50,86c-3.3,0-6-2.7-6-6s2.7-6,6-6s6,2.7,6,6S53.3,86,50,86z M81,86   c-3.3,0-6-2.7-6-6s2.7-6,6-6s6,2.7,6,6S84.3,86,81,86z"/></g></svg>