<svg width='200' height='200' fill="#000000" xmlns="http://www.w3.org/2000/svg" xmlns:xlink="http://www.w3.org/1999/xlink" version="1.1" x="0px" y="0px" viewBox="0 0 133.9 133.9" style="enable-background:new 0 0 133.9 133.9;" xml:space="preserve"><path d="M120.4,69.4c0.2,0.9-1,0.9-1.3,0.3V25.5l1.3-1.7V69.4z M77.8,59.5H15.6L55.2,19l0,0H118L77.8,59.5z M76.2,114.9  L76.2,114.9c-0.3,0-0.5-0.2-0.5-0.5V65.3h1.1v49.1C76.8,114.7,76.5,114.9,76.2,114.9L76.2,114.9z M57.1,69.4c0,0.3-0.2,0.5-0.5,0.5  l0,0c-0.3,0-0.5-0.2-0.5-0.5v-4.1h1.1L57.1,69.4L57.1,69.4z M14.5,114.4c0,0.3-0.2,0.5-0.5,0.5l0,0c-0.3,0-0.5-0.2-0.5-0.5V65.3h1.1  v49.1H14.5z M123.1,17.9c0.1-0.3,0.1-0.7-0.1-1c-0.2-0.6-0.8-0.9-1.4-0.9h-67c-0.4,0-0.8,0.2-1.1,0.4l0,0  c-0.4,0.4-38.9,39.8-42.4,43.3c-0.4,0.2-0.7,0.7-0.7,1.2c0,0.2,0,0.3,0.1,0.5c0,0.1-0.1,0.3-0.1,0.4v52.6c0,1.9,1.6,3.5,3.5,3.5l0,0  c1.9,0,3.5-1.6,3.5-3.5V65.3H53v4.1c0,1.9,1.6,3.5,3.5,3.5l0,0c1.9,0,3.5-1.6,3.5-3.5v-4.1h12.6v49.1c0,1.9,1.6,3.5,3.5,3.5l0,0  c1.9,0,3.5-1.6,3.5-3.5V64.8l36.6-36.9v41.5c0,1.9,1.6,3.5,3.5,3.5l0,0c1.9,0,3.5-1.6,3.5-3.5L123.1,17.9z"/></svg>