<svg xmlns="http://www.w3.org/2000/svg" xmlns:xlink="http://www.w3.org/1999/xlink" viewBox="0 0 747.32 440.81"><defs><style>.a{fill:#b3b3b3;}.b,.c{fill:none;stroke-miterlimit:10;}.b{stroke:#00ffe6;stroke-width:4px;}.c{stroke:#b3b3b3;}.d{fill:url(#a);}.e{fill:#4d4d4d;}</style><linearGradient id="a" x1="100" y1="424.33" x2="728.65" y2="424.33" gradientUnits="userSpaceOnUse"><stop offset="0" stop-color="#85ffad"/><stop offset="0.99" stop-color="#53f2e5"/></linearGradient></defs><title>heat表1</title><path class="a" d="M718.78,248V645H109V248h609.8m1-1H108V646h611.8V247Z" transform="translate(-11.54 -246.27)"/><polyline class="b" points="709.12 399.73 97.32 399.73 97.32 0.73"/><line class="c" x1="299.93" y1="0.73" x2="299.93" y2="398.88"/><line class="c" x1="503.86" y1="1.59" x2="503.86" y2="399.73"/><line class="c" x1="96.88" y1="134.18" x2="708.68" y2="134.18"/><line class="c" x1="97.32" y1="268.06" x2="709.12" y2="268.06"/><path class="d" d="M719.78,281.58A8.87,8.87,0,0,0,711.3,293l-190,130.52A8.85,8.85,0,0,0,507,430.24L319.34,482.46a8.86,8.86,0,0,0-16.3,4.83c0,.09,0,.18,0,.27L116,552.92a8.85,8.85,0,1,0,1.77,5.3c0-.09,0-.18,0-.28l187.1-65.36a8.85,8.85,0,0,0,15.95-5l187.65-52.22a8.86,8.86,0,0,0,15.91-7.43l190-130.52a8.86,8.86,0,1,0,5.46-15.84Z" transform="translate(-11.54 -246.27)"/><path class="e" d="M21.14,247.61a4.48,4.48,0,0,1,1.51,3.55,5.78,5.78,0,0,1-1.7,4,25,25,0,0,1-3.55,2.74q-3.65,2.47-4.06,4.46h9.34v1.34H11.54a6,6,0,0,1,1.7-4.08,20.52,20.52,0,0,1,3.6-3,25.79,25.79,0,0,0,2.9-2.28,4.79,4.79,0,0,0,1.42-3.29,3.34,3.34,0,0,0-1.06-2.64,4,4,0,0,0-2.81-.94,3.7,3.7,0,0,0-3,1.25,5.2,5.2,0,0,0-1.15,3.65H11.71a6.29,6.29,0,0,1,1.58-4.54,5.2,5.2,0,0,1,4-1.66A5.48,5.48,0,0,1,21.14,247.61Z" transform="translate(-11.54 -246.27)"/><path class="e" d="M32.71,246.6v17.14H31.25V248.43a8.85,8.85,0,0,1-4.1,2.52v-1.49a9.58,9.58,0,0,0,2.38-1.08,9.68,9.68,0,0,0,2-1.78Z" transform="translate(-11.54 -246.27)"/><path class="e" d="M43.2,263.33a4.41,4.41,0,0,1-2.4,4.15l-.53-.84a3.78,3.78,0,0,0,1.85-2.93l-.36,0a1.31,1.31,0,0,1-.89-.31,1.12,1.12,0,0,1-.34-.86,1.15,1.15,0,0,1,.31-.89,1.2,1.2,0,0,1,.89-.34Q43.2,261.34,43.2,263.33Z" transform="translate(-11.54 -246.27)"/><path class="e" d="M56.71,249.1A12.75,12.75,0,0,1,58,255.17a12.92,12.92,0,0,1-1.25,6.07,5.17,5.17,0,0,1-9.22,0,15.4,15.4,0,0,1,0-12.14,5.17,5.17,0,0,1,9.22,0Zm-8.18,1a13.27,13.27,0,0,0-.79,5.06,13.49,13.49,0,0,0,.79,5.06,3.69,3.69,0,0,0,3.58,2.54,3.74,3.74,0,0,0,3.58-2.54,13.36,13.36,0,0,0,.82-5.06,13.13,13.13,0,0,0-.82-5.06,3.79,3.79,0,0,0-7.15,0Z" transform="translate(-11.54 -246.27)"/><path class="e" d="M71.11,249.1a12.75,12.75,0,0,1,1.25,6.07,12.92,12.92,0,0,1-1.25,6.07,5.17,5.17,0,0,1-9.22,0,15.4,15.4,0,0,1,0-12.14,5.17,5.17,0,0,1,9.22,0Zm-8.18,1a13.27,13.27,0,0,0-.79,5.06,13.49,13.49,0,0,0,.79,5.06,3.69,3.69,0,0,0,3.58,2.54,3.74,3.74,0,0,0,3.58-2.54,13.36,13.36,0,0,0,.82-5.06,13.13,13.13,0,0,0-.82-5.06,3.79,3.79,0,0,0-7.15,0Z" transform="translate(-11.54 -246.27)"/><path class="e" d="M85.51,249.1a12.75,12.75,0,0,1,1.25,6.07,12.92,12.92,0,0,1-1.25,6.07,5.17,5.17,0,0,1-9.22,0,15.4,15.4,0,0,1,0-12.14,5.17,5.17,0,0,1,9.22,0Zm-8.18,1a13.27,13.27,0,0,0-.79,5.06,13.49,13.49,0,0,0,.79,5.06,3.69,3.69,0,0,0,3.58,2.54,3.74,3.74,0,0,0,3.58-2.54,13.36,13.36,0,0,0,.82-5.06,13.13,13.13,0,0,0-.82-5.06,3.79,3.79,0,0,0-7.15,0Z" transform="translate(-11.54 -246.27)"/><path class="e" d="M18.31,380.6v17.14H16.85V382.43a8.85,8.85,0,0,1-4.1,2.52v-1.49a9.58,9.58,0,0,0,2.38-1.08,9.68,9.68,0,0,0,2-1.78Z" transform="translate(-11.54 -246.27)"/><path class="e" d="M33.77,380.6h1.42v11.9h2.9v1.22h-2.9v4H33.77v-4H24.94v-1.42Zm-.07,2-7.44,9.91h7.51V382.6Z" transform="translate(-11.54 -246.27)"/><path class="e" d="M43.2,397.33a4.41,4.41,0,0,1-2.4,4.15l-.53-.84a3.78,3.78,0,0,0,1.85-2.93l-.36,0a1.31,1.31,0,0,1-.89-.31,1.12,1.12,0,0,1-.34-.86,1.15,1.15,0,0,1,.31-.89,1.2,1.2,0,0,1,.89-.34Q43.2,395.34,43.2,397.33Z" transform="translate(-11.54 -246.27)"/><path class="e" d="M56.71,383.1A12.75,12.75,0,0,1,58,389.17a12.92,12.92,0,0,1-1.25,6.07,5.17,5.17,0,0,1-9.22,0,15.4,15.4,0,0,1,0-12.14,5.17,5.17,0,0,1,9.22,0Zm-8.18,1a13.27,13.27,0,0,0-.79,5.06,13.49,13.49,0,0,0,.79,5.06,3.69,3.69,0,0,0,3.58,2.54,3.74,3.74,0,0,0,3.58-2.54,13.36,13.36,0,0,0,.82-5.06,13.13,13.13,0,0,0-.82-5.06,3.79,3.79,0,0,0-7.15,0Z" transform="translate(-11.54 -246.27)"/><path class="e" d="M71.11,383.1a12.75,12.75,0,0,1,1.25,6.07,12.92,12.92,0,0,1-1.25,6.07,5.17,5.17,0,0,1-9.22,0,15.4,15.4,0,0,1,0-12.14,5.17,5.17,0,0,1,9.22,0Zm-8.18,1a13.27,13.27,0,0,0-.79,5.06,13.49,13.49,0,0,0,.79,5.06,3.69,3.69,0,0,0,3.58,2.54,3.74,3.74,0,0,0,3.58-2.54,13.36,13.36,0,0,0,.82-5.06,13.13,13.13,0,0,0-.82-5.06,3.79,3.79,0,0,0-7.15,0Z" transform="translate(-11.54 -246.27)"/><path class="e" d="M85.51,383.1a12.75,12.75,0,0,1,1.25,6.07,12.92,12.92,0,0,1-1.25,6.07,5.17,5.17,0,0,1-9.22,0,15.4,15.4,0,0,1,0-12.14,5.17,5.17,0,0,1,9.22,0Zm-8.18,1a13.27,13.27,0,0,0-.79,5.06,13.49,13.49,0,0,0,.79,5.06,3.69,3.69,0,0,0,3.58,2.54,3.74,3.74,0,0,0,3.58-2.54,13.36,13.36,0,0,0,.82-5.06,13.13,13.13,0,0,0-.82-5.06,3.79,3.79,0,0,0-7.15,0Z" transform="translate(-11.54 -246.27)"/><path class="e" d="M26,514.6H37.06v1.22l-6.48,15.91H29L35.52,516H26Z" transform="translate(-11.54 -246.27)"/><path class="e" d="M43.2,531.33a4.41,4.41,0,0,1-2.4,4.15l-.53-.84a3.78,3.78,0,0,0,1.85-2.93l-.36,0a1.31,1.31,0,0,1-.89-.31,1.12,1.12,0,0,1-.34-.86,1.15,1.15,0,0,1,.31-.89,1.2,1.2,0,0,1,.89-.34Q43.2,529.34,43.2,531.33Z" transform="translate(-11.54 -246.27)"/><path class="e" d="M56.71,517.1A12.75,12.75,0,0,1,58,523.17a12.92,12.92,0,0,1-1.25,6.07,5.17,5.17,0,0,1-9.22,0,15.4,15.4,0,0,1,0-12.14,5.17,5.17,0,0,1,9.22,0Zm-8.18,1a13.27,13.27,0,0,0-.79,5.06,13.49,13.49,0,0,0,.79,5.06,3.69,3.69,0,0,0,3.58,2.54,3.74,3.74,0,0,0,3.58-2.54,13.36,13.36,0,0,0,.82-5.06,13.14,13.14,0,0,0-.82-5.06,3.79,3.79,0,0,0-7.15,0Z" transform="translate(-11.54 -246.27)"/><path class="e" d="M71.11,517.1a12.75,12.75,0,0,1,1.25,6.07,12.92,12.92,0,0,1-1.25,6.07,5.17,5.17,0,0,1-9.22,0,15.4,15.4,0,0,1,0-12.14,5.17,5.17,0,0,1,9.22,0Zm-8.18,1a13.27,13.27,0,0,0-.79,5.06,13.49,13.49,0,0,0,.79,5.06,3.69,3.69,0,0,0,3.58,2.54,3.74,3.74,0,0,0,3.58-2.54,13.36,13.36,0,0,0,.82-5.06,13.14,13.14,0,0,0-.82-5.06,3.79,3.79,0,0,0-7.15,0Z" transform="translate(-11.54 -246.27)"/><path class="e" d="M85.51,517.1a12.75,12.75,0,0,1,1.25,6.07,12.92,12.92,0,0,1-1.25,6.07,5.17,5.17,0,0,1-9.22,0,15.4,15.4,0,0,1,0-12.14,5.17,5.17,0,0,1,9.22,0Zm-8.18,1a13.27,13.27,0,0,0-.79,5.06,13.49,13.49,0,0,0,.79,5.06,3.69,3.69,0,0,0,3.58,2.54,3.74,3.74,0,0,0,3.58-2.54,13.36,13.36,0,0,0,.82-5.06,13.14,13.14,0,0,0-.82-5.06,3.79,3.79,0,0,0-7.15,0Z" transform="translate(-11.54 -246.27)"/><path class="e" d="M85.51,628.1a12.75,12.75,0,0,1,1.25,6.07,12.92,12.92,0,0,1-1.25,6.07,5.17,5.17,0,0,1-9.22,0,15.4,15.4,0,0,1,0-12.14,5.17,5.17,0,0,1,9.22,0Zm-8.18,1a13.27,13.27,0,0,0-.79,5.06,13.49,13.49,0,0,0,.79,5.06,3.69,3.69,0,0,0,3.58,2.54,3.74,3.74,0,0,0,3.58-2.54,13.36,13.36,0,0,0,.82-5.06,13.14,13.14,0,0,0-.82-5.06,3.79,3.79,0,0,0-7.15,0Z" transform="translate(-11.54 -246.27)"/><path class="e" d="M118.84,670.61a4.48,4.48,0,0,1,1.51,3.55,5.78,5.78,0,0,1-1.7,4,25,25,0,0,1-3.55,2.74q-3.65,2.47-4.06,4.46h9.34v1.34H109.24a6,6,0,0,1,1.7-4.08,20.5,20.5,0,0,1,3.6-3,25.81,25.81,0,0,0,2.9-2.28,4.79,4.79,0,0,0,1.42-3.29,3.34,3.34,0,0,0-1.06-2.64,4,4,0,0,0-2.81-.94,3.7,3.7,0,0,0-3,1.25,5.2,5.2,0,0,0-1.15,3.65h-1.49a6.29,6.29,0,0,1,1.58-4.54,5.19,5.19,0,0,1,4-1.66A5.47,5.47,0,0,1,118.84,670.61Z" transform="translate(-11.54 -246.27)"/><path class="e" d="M133.82,672.1a12.75,12.75,0,0,1,1.25,6.07,12.92,12.92,0,0,1-1.25,6.07,5.17,5.17,0,0,1-9.22,0,15.4,15.4,0,0,1,0-12.14,5.17,5.17,0,0,1,9.22,0Zm-8.18,1a13.27,13.27,0,0,0-.79,5.06,13.49,13.49,0,0,0,.79,5.06,3.69,3.69,0,0,0,3.58,2.54,3.74,3.74,0,0,0,3.58-2.54,13.36,13.36,0,0,0,.82-5.06,13.14,13.14,0,0,0-.82-5.06,3.79,3.79,0,0,0-7.15,0Z" transform="translate(-11.54 -246.27)"/><path class="e" d="M144.81,669.6v17.14h-1.46V671.43a8.86,8.86,0,0,1-4.1,2.52v-1.49a9.56,9.56,0,0,0,2.38-1.08,9.7,9.7,0,0,0,2-1.78Z" transform="translate(-11.54 -246.27)"/><path class="e" d="M162,670.52a4.22,4.22,0,0,1,1.44,3.36,3.76,3.76,0,0,1-2.78,3.89,4.46,4.46,0,0,1,2.3,1.51,4,4,0,0,1,.84,2.54,4.94,4.94,0,0,1-1.61,3.79,6.07,6.07,0,0,1-4.18,1.46,6,6,0,0,1-3.82-1.2,5.69,5.69,0,0,1-2.06-4.34h1.49a4.28,4.28,0,0,0,1.54,3.34,4.35,4.35,0,0,0,2.83.94,4.58,4.58,0,0,0,3.19-1.13,3.77,3.77,0,0,0,1.15-2.81,3.2,3.2,0,0,0-1.1-2.54,4.29,4.29,0,0,0-2.9-.91h-1.51v-1.2h1.37a4.36,4.36,0,0,0,2.83-.84,3.14,3.14,0,0,0,1-2.42,3.23,3.23,0,0,0-1-2.45,4.1,4.1,0,0,0-2.86-.94,3.86,3.86,0,0,0-2.86,1,4.46,4.46,0,0,0-1.3,2.86h-1.46a5.62,5.62,0,0,1,1.78-3.82,5.45,5.45,0,0,1,3.84-1.37A5.75,5.75,0,0,1,162,670.52Z" transform="translate(-11.54 -246.27)"/><path class="e" d="M322.84,670.61a4.48,4.48,0,0,1,1.51,3.55,5.78,5.78,0,0,1-1.7,4,25,25,0,0,1-3.55,2.74q-3.65,2.47-4.06,4.46h9.34v1.34H313.24a6,6,0,0,1,1.7-4.08,20.5,20.5,0,0,1,3.6-3,25.81,25.81,0,0,0,2.9-2.28,4.79,4.79,0,0,0,1.42-3.29,3.34,3.34,0,0,0-1.06-2.64,4,4,0,0,0-2.81-.94,3.7,3.7,0,0,0-3,1.25,5.2,5.2,0,0,0-1.15,3.65h-1.49a6.29,6.29,0,0,1,1.58-4.54,5.19,5.19,0,0,1,4-1.66A5.47,5.47,0,0,1,322.84,670.61Z" transform="translate(-11.54 -246.27)"/><path class="e" d="M337.82,672.1a12.75,12.75,0,0,1,1.25,6.07,12.92,12.92,0,0,1-1.25,6.07,5.17,5.17,0,0,1-9.22,0,15.4,15.4,0,0,1,0-12.14,5.17,5.17,0,0,1,9.22,0Zm-8.18,1a13.27,13.27,0,0,0-.79,5.06,13.49,13.49,0,0,0,.79,5.06,3.69,3.69,0,0,0,3.58,2.54,3.74,3.74,0,0,0,3.58-2.54,13.36,13.36,0,0,0,.82-5.06,13.14,13.14,0,0,0-.82-5.06,3.79,3.79,0,0,0-7.15,0Z" transform="translate(-11.54 -246.27)"/><path class="e" d="M348.81,669.6v17.14h-1.46V671.43a8.86,8.86,0,0,1-4.1,2.52v-1.49a9.56,9.56,0,0,0,2.38-1.08,9.7,9.7,0,0,0,2-1.78Z" transform="translate(-11.54 -246.27)"/><path class="e" d="M364.27,669.6h1.42v11.9h2.9v1.22h-2.9v4h-1.42v-4h-8.83v-1.42Zm-.07,2-7.44,9.91h7.51V671.6Z" transform="translate(-11.54 -246.27)"/><path class="e" d="M526.84,670.61a4.48,4.48,0,0,1,1.51,3.55,5.78,5.78,0,0,1-1.7,4,25,25,0,0,1-3.55,2.74q-3.65,2.47-4.06,4.46h9.34v1.34H517.24a6,6,0,0,1,1.7-4.08,20.53,20.53,0,0,1,3.6-3,25.78,25.78,0,0,0,2.9-2.28,4.79,4.79,0,0,0,1.42-3.29,3.34,3.34,0,0,0-1.06-2.64,4,4,0,0,0-2.81-.94,3.71,3.71,0,0,0-3,1.25,5.2,5.2,0,0,0-1.15,3.65h-1.49a6.29,6.29,0,0,1,1.58-4.54,5.2,5.2,0,0,1,4-1.66A5.47,5.47,0,0,1,526.84,670.61Z" transform="translate(-11.54 -246.27)"/><path class="e" d="M541.82,672.1a12.75,12.75,0,0,1,1.25,6.07,12.93,12.93,0,0,1-1.25,6.07,5.16,5.16,0,0,1-9.22,0,15.39,15.39,0,0,1,0-12.14,5.16,5.16,0,0,1,9.22,0Zm-8.18,1a13.28,13.28,0,0,0-.79,5.06,13.51,13.51,0,0,0,.79,5.06,3.69,3.69,0,0,0,3.58,2.54,3.74,3.74,0,0,0,3.58-2.54,13.35,13.35,0,0,0,.82-5.06,13.13,13.13,0,0,0-.82-5.06,3.79,3.79,0,0,0-7.15,0Z" transform="translate(-11.54 -246.27)"/><path class="e" d="M552.81,669.6v17.14h-1.46V671.43a8.87,8.87,0,0,1-4.1,2.52v-1.49a9.56,9.56,0,0,0,2.38-1.08,9.69,9.69,0,0,0,2-1.78Z" transform="translate(-11.54 -246.27)"/><path class="e" d="M561.5,669.6h9.7v1.34h-8.47l-.6,6.31h.07a4.78,4.78,0,0,1,1.9-1.37,5.86,5.86,0,0,1,6.19,1.06,6,6,0,0,1,1.56,4.34,5.58,5.58,0,0,1-1.75,4.2,6.38,6.38,0,0,1-8,.36,4.84,4.84,0,0,1-1.94-3.65h1.46a3.78,3.78,0,0,0,1.44,2.71,4.46,4.46,0,0,0,2.81.89,4.36,4.36,0,0,0,3.22-1.27,4.49,4.49,0,0,0,1.27-3.24,4.75,4.75,0,0,0-1.2-3.43,4.2,4.2,0,0,0-3.14-1.18,4.82,4.82,0,0,0-2.35.58A4,4,0,0,0,562,679h-1.39Z" transform="translate(-11.54 -246.27)"/><path class="e" d="M713.84,670.61a4.48,4.48,0,0,1,1.51,3.55,5.78,5.78,0,0,1-1.7,4,25,25,0,0,1-3.55,2.74q-3.65,2.47-4.06,4.46h9.34v1.34H704.24a6,6,0,0,1,1.7-4.08,20.53,20.53,0,0,1,3.6-3,25.78,25.78,0,0,0,2.9-2.28,4.79,4.79,0,0,0,1.42-3.29,3.34,3.34,0,0,0-1.06-2.64,4,4,0,0,0-2.81-.94,3.71,3.71,0,0,0-3,1.25,5.2,5.2,0,0,0-1.15,3.65h-1.49a6.29,6.29,0,0,1,1.58-4.54,5.2,5.2,0,0,1,4-1.66A5.47,5.47,0,0,1,713.84,670.61Z" transform="translate(-11.54 -246.27)"/><path class="e" d="M728.82,672.1a12.75,12.75,0,0,1,1.25,6.07,12.93,12.93,0,0,1-1.25,6.07,5.16,5.16,0,0,1-9.22,0,15.39,15.39,0,0,1,0-12.14,5.16,5.16,0,0,1,9.22,0Zm-8.18,1a13.28,13.28,0,0,0-.79,5.06,13.51,13.51,0,0,0,.79,5.06,3.69,3.69,0,0,0,3.58,2.54,3.74,3.74,0,0,0,3.58-2.54,13.35,13.35,0,0,0,.82-5.06,13.13,13.13,0,0,0-.82-5.06,3.79,3.79,0,0,0-7.15,0Z" transform="translate(-11.54 -246.27)"/><path class="e" d="M739.81,669.6v17.14h-1.46V671.43a8.87,8.87,0,0,1-4.1,2.52v-1.49a9.56,9.56,0,0,0,2.38-1.08,9.69,9.69,0,0,0,2-1.78Z" transform="translate(-11.54 -246.27)"/><path class="e" d="M758.58,673.78h-1.46a3.56,3.56,0,0,0-3.86-3.24,3.78,3.78,0,0,0-3.43,2.18,10.38,10.38,0,0,0-1.2,5.3v.84h.1a5,5,0,0,1,4.75-3.24,5.11,5.11,0,0,1,3.91,1.56,5.63,5.63,0,0,1,1.49,4.06,5.8,5.8,0,0,1-1.58,4.18,5.34,5.34,0,0,1-4,1.66,5.23,5.23,0,0,1-4.68-2.38,11.16,11.16,0,0,1-1.39-6.1,12.64,12.64,0,0,1,1.54-6.6,5.1,5.1,0,0,1,4.56-2.74Q757.86,669.27,758.58,673.78Zm-8.38,4.37a4.18,4.18,0,0,0-1.25,3.12,4.66,4.66,0,0,0,1.1,3.17,4,4,0,0,0,3.14,1.37,3.88,3.88,0,0,0,3-1.29,4.73,4.73,0,0,0,1.15-3.26,4.44,4.44,0,0,0-1.13-3.17,4.35,4.35,0,0,0-6.07.07Z" transform="translate(-11.54 -246.27)"/></svg>