<svg xmlns="http://www.w3.org/2000/svg" xmlns:xlink="http://www.w3.org/1999/xlink" viewBox="0 0 500.5 470"><defs><style>.a{fill:#e6e6e6;}.b{fill:url(#a);}.c{fill:url(#b);}.d{fill:url(#c);}.e{fill:url(#d);}.f{fill:url(#e);}.g{fill:url(#f);}.h{fill:url(#g);}.i{fill:url(#h);}.j{fill:url(#i);}.k{fill:url(#j);}</style><linearGradient id="a" x1="1" y1="10" x2="481" y2="10" gradientUnits="userSpaceOnUse"><stop offset="0" stop-color="#85ffad"/><stop offset="0.99" stop-color="#53f2e5"/></linearGradient><linearGradient id="b" x1="0" y1="60" x2="310" y2="60" xlink:href="#a"/><linearGradient id="c" x1="0.5" y1="110" x2="289.5" y2="110" xlink:href="#a"/><linearGradient id="d" y1="160" x2="271" y2="160" xlink:href="#a"/><linearGradient id="e" y1="210" x2="261" y2="210" xlink:href="#a"/><linearGradient id="f" y1="260" x2="221" y2="260" xlink:href="#a"/><linearGradient id="g" y1="310" x2="181" y2="310" xlink:href="#a"/><linearGradient id="h" y1="360" x2="121" y2="360" xlink:href="#a"/><linearGradient id="i" y1="410" x2="101" y2="410" xlink:href="#a"/><linearGradient id="j" y1="460" x2="81" y2="460" xlink:href="#a"/></defs><title>heat表2</title><rect class="a" x="0.5" width="500" height="20"/><rect class="b" x="1" width="480" height="20"/><rect class="a" x="0.5" y="50" width="500" height="20"/><rect class="c" y="50" width="310" height="20"/><rect class="a" x="0.5" y="100" width="500" height="20"/><rect class="d" x="0.5" y="100" width="289" height="20"/><rect class="a" x="0.5" y="150" width="500" height="20"/><rect class="e" x="1" y="150" width="270" height="20"/><rect class="a" x="0.5" y="200" width="500" height="20"/><rect class="f" x="1" y="200" width="260" height="20"/><rect class="a" x="0.5" y="250" width="500" height="20"/><rect class="g" x="1" y="250" width="220" height="20"/><rect class="a" x="0.5" y="300" width="500" height="20"/><rect class="h" x="1" y="300" width="180" height="20"/><rect class="a" x="0.5" y="350" width="500" height="20"/><rect class="i" x="1" y="350" width="120" height="20"/><rect class="a" x="0.5" y="400" width="500" height="20"/><rect class="j" x="1" y="400" width="100" height="20"/><rect class="a" x="0.5" y="450" width="500" height="20"/><rect class="k" x="1" y="450" width="80" height="20"/></svg>