<svg width='200' height='200' fill="#000000" xmlns="http://www.w3.org/2000/svg" xmlns:xlink="http://www.w3.org/1999/xlink" version="1.1" x="0px" y="0px" viewBox="0 0 100 100" style="enable-background:new 0 0 100 100;" xml:space="preserve"><g><path d="M8.1,39c0.7,1.1,1.3,7,1.8,10.9c1,9.4,1.5,12.6,3.4,12.6s2.5-3.3,3.4-12.6c0.4-3.4,0.9-8.2,1.5-10.2   c0.6,2,1.1,6.8,1.5,10.2c1,9.4,1.5,12.6,3.4,12.6s2.5-3.3,3.4-12.6c0.4-3.4,0.9-8.2,1.5-10.2c0.6,2,1.1,6.8,1.5,10.2   c1,9.4,1.5,12.6,3.4,12.6c2,0,2.5-3.3,3.4-12.6c0.4-3.4,0.9-8.2,1.5-10.2c0.6,2,1.1,6.8,1.5,10.2c1,9.4,1.5,12.6,3.4,12.6   c2,0,2.5-3.3,3.4-12.6c0.4-3.4,0.9-8.2,1.5-10.2c0.6,2,1.1,6.8,1.5,10.2c1,9.4,1.5,12.6,3.4,12.6c2,0,2.5-3.3,3.4-12.6   c0.4-3.4,0.9-8.2,1.5-10.2c0.6,2,1.1,6.8,1.5,10.2c1,9.4,1.5,12.6,3.4,12.6s2.5-3.3,3.4-12.6c0.4-3.4,0.9-8.2,1.5-10.2   c0.6,2,1.1,6.8,1.5,10.2c1,9.4,1.5,12.6,3.4,12.6c2,0,2.5-3.3,3.4-12.6c0.4-3.4,0.9-8.2,1.5-10.2c0.6,2,1.1,6.8,1.5,10.2   c1,9.4,1.5,12.6,3.4,12.6c2,0,2.5-3.3,3.4-12.6c0.4-3.4,0.9-8.2,1.5-10.2c0.6,2,1.1,6.8,1.5,10.2c1,9.4,1.5,12.6,3.4,12.6   c0.6,0,1-0.4,1-1c0-0.4-0.3-0.8-0.7-1c-0.7-1.1-1.3-7-1.8-10.9c-1-9.4-1.5-12.6-3.4-12.6s-2.5,3.3-3.4,12.6   c-0.4,3.4-0.9,8.2-1.5,10.2c-0.6-2-1.1-6.8-1.5-10.2c-1-9.4-1.5-12.6-3.4-12.6c-2,0-2.5,3.3-3.4,12.6c-0.4,3.4-0.9,8.2-1.5,10.2   c-0.6-2-1.1-6.8-1.5-10.2c-1-9.4-1.5-12.6-3.4-12.6c-2,0-2.5,3.3-3.4,12.6c-0.4,3.4-0.9,8.2-1.5,10.2c-0.6-2-1.1-6.8-1.5-10.2   c-1-9.4-1.5-12.6-3.4-12.6s-2.5,3.3-3.4,12.6c-0.4,3.4-0.9,8.2-1.5,10.2c-0.6-2-1.1-6.8-1.5-10.2c-1-9.4-1.5-12.6-3.4-12.6   c-2,0-2.5,3.3-3.4,12.6c-0.4,3.4-0.9,8.2-1.5,10.2c-0.6-2-1.1-6.8-1.5-10.2c-1-9.4-1.5-12.6-3.4-12.6c-2,0-2.5,3.3-3.4,12.6   c-0.4,3.4-0.9,8.2-1.5,10.2c-0.6-2-1.1-6.8-1.5-10.2c-1-9.4-1.5-12.6-3.4-12.6c-2,0-2.5,3.3-3.4,12.6c-0.4,3.4-0.9,8.2-1.5,10.2   c-0.6-2-1.1-6.8-1.5-10.2c-1-9.4-1.5-12.6-3.4-12.6c-2,0-2.5,3.3-3.4,12.6c-0.4,3.4-0.9,8.2-1.5,10.2c-0.6-2-1.1-6.8-1.5-10.2   c-1-9.4-1.5-12.6-3.4-12.6c-0.6,0-1,0.4-1,1C7.4,38.5,7.7,38.9,8.1,39z"/></g></svg>