<svg width='200' height='200' fill="#000000" xmlns="http://www.w3.org/2000/svg" xmlns:xlink="http://www.w3.org/1999/xlink" version="1.1" x="0px" y="0px" viewBox="0 0 100 100" style="enable-background:new 0 0 100 100;" xml:space="preserve"><style type="text/css">
	.st0{fill:none;stroke:#000000;stroke-width:2;stroke-linecap:round;stroke-linejoin:round;stroke-miterlimit:10;}
	.st1{fill:none;stroke:#000000;stroke-width:2.0126;stroke-linecap:round;stroke-linejoin:round;}
</style><path d="M91.5,51c-1.4,0-2.1-0.7-3-1.7c-1-1-2.2-2.3-4.5-2.3s-3.5,1.3-4.5,2.3c-0.9,0.9-1.6,1.7-3,1.7c-1.4,0-2.1-0.7-3-1.7  c-1-1-2.2-2.3-4.5-2.3c-2.3,0-3.5,1.3-4.5,2.3c-0.9,0.9-1.6,1.7-3,1.7c-1.4,0-2.1-0.7-3-1.7c-1-1-2.2-2.3-4.5-2.3s-3.5,1.3-4.5,2.3  c-0.9,0.9-1.6,1.7-3,1.7c-1.4,0-2.1-0.7-3-1.7c-1-1-2.2-2.3-4.5-2.3s-3.5,1.3-4.5,2.3c-0.9,0.9-1.6,1.7-3,1.7c-1.4,0-2.1-0.7-3-1.7  c-1-1-2.2-2.3-4.5-2.3c-2.3,0-3.5,1.3-4.5,2.3c-0.9,0.9-1.6,1.7-3,1.7s-2.1-0.7-3-1.7c-1-1-2.2-2.3-4.5-2.3c-0.6,0-1,0.4-1,1  s0.4,1,1,1c1.4,0,2.1,0.7,3,1.7c1,1,2.2,2.3,4.5,2.3s3.5-1.3,4.5-2.3c0.9-0.9,1.6-1.7,3-1.7c1.4,0,2.1,0.7,3,1.7  c1,1,2.2,2.3,4.5,2.3c2.3,0,3.5-1.3,4.5-2.3c0.9-0.9,1.6-1.7,3-1.7c1.4,0,2.1,0.7,3,1.7c1,1,2.2,2.3,4.5,2.3s3.5-1.3,4.5-2.3  c0.9-0.9,1.6-1.7,3-1.7c1.4,0,2.1,0.7,3,1.7c1,1,2.2,2.3,4.5,2.3c2.3,0,3.5-1.3,4.5-2.3c0.9-0.9,1.6-1.7,3-1.7c1.4,0,2.1,0.7,3,1.7  c1,1,2.2,2.3,4.5,2.3c2.3,0,3.5-1.3,4.5-2.3c0.9-0.9,1.6-1.7,3-1.7s2.1,0.7,3,1.7c1,1,2.2,2.3,4.5,2.3c0.6,0,1-0.4,1-1  S92,51,91.5,51z"/></svg>