<svg xmlns="http://www.w3.org/2000/svg" viewBox="0 0 306.41 316.22"><title>id-name</title><path d="M88.42,54.51h8.35V98.72h27.79v7.2H88.42Z" transform="translate(-78.55 -54.51)"/><path d="M79.71,126.51H90l12.1,18.14,12.1-18.14h10.3l-17.35,24.84,18.5,26.57h-10.3L102.1,158,88.85,177.92H78.55l18.36-26.57Z" transform="translate(-78.55 -54.51)"/><path d="M89.14,198.51H124.2v7.2H97.56V220h25.13v7.2H97.56v22.75H89.14Z" transform="translate(-78.55 -54.51)"/><path d="M88.47,282.51h18.79q12.46,0,18.94,6.91,6.19,6.55,6.19,18.79T126.2,327q-6.48,6.91-18.94,6.91H88.47Zm8.42,7.2v37h8.78q9.57,0,14-4.46t4.32-14q0-9.79-4.32-14.11t-14-4.39Z" transform="translate(-78.55 -54.51)"/><path d="M147.51,282.51h37.08v7.2H155.93V304h26.93v7.2H155.93v15.55h29.88v7.2h-38.3Z" transform="translate(-78.55 -54.51)"/><path d="M233.26,285.25q5.4,4,6.19,12.46H231.1q-1.08-4.75-4-6.84t-8.5-2.09q-4.9,0-7.42,1.37a5.5,5.5,0,0,0-3.17,5.33q0,3.39,3.6,5.26a67.63,67.63,0,0,0,8.78,3.17q10.15,3.1,13.46,5,6.7,4,6.7,11.09A12.93,12.93,0,0,1,235.2,331q-5.47,4-15.26,4-9.5,0-14.83-3.67-6.55-4.54-7.06-14.33h8.35q.86,5.9,4.18,8.35,3.09,2.23,9.36,2.23a18.14,18.14,0,0,0,8.93-1.87q3.31-2,3.31-5.11,0-4.1-4.82-6.48a94.89,94.89,0,0,0-10-3.38q-9.58-3-11.81-4.32a11.36,11.36,0,0,1-5.9-10.37,12.15,12.15,0,0,1,5.76-10.73q5.33-3.74,13.68-3.74Q228.22,281.5,233.26,285.25Z" transform="translate(-78.55 -54.51)"/><path d="M255,282.51h8.42v51.41H255Z" transform="translate(-78.55 -54.51)"/><path d="M318.65,285.9q5.54,4.32,6.91,12.89h-8.5a11.84,11.84,0,0,0-4.61-7.42q-3.53-2.45-9.43-2.45-7.27,0-11.45,4.9Q287,298.93,287,308.43q0,9.07,4.1,14,4.46,5.18,13.82,5.18a26.72,26.72,0,0,0,6.91-.86,22.44,22.44,0,0,0,5.54-2.38V313.76H303.74v-7.2h22V328.3a28.92,28.92,0,0,1-9.36,4.9A42.26,42.26,0,0,1,304,334.93q-12.24,0-19.08-7.78-6.34-7.2-6.34-18.72t6.34-19q6.62-7.92,18.14-7.92Q313,281.5,318.65,285.9Z" transform="translate(-78.55 -54.51)"/><path d="M342.34,282.51h8.42l25.42,37.08h.29V282.51H385v51.41h-8.21L351,296.34h-.29v37.58h-8.42Z" transform="translate(-78.55 -54.51)"/><path d="M90.26,357.63h2.11v12.85H90.26Z" transform="translate(-78.55 -54.51)"/><path d="M98.49,357.63h2.11l6.35,9.27H107v-9.27h2.12v12.85h-2.05l-6.43-9.4h-.07v9.4H98.49Z" transform="translate(-78.55 -54.51)"/><path d="M115.26,357.63H120a6.18,6.18,0,0,1,4.73,1.73,7.9,7.9,0,0,1,0,9.4,6.18,6.18,0,0,1-4.73,1.73h-4.7Zm2.11,1.8v9.25h2.2a4.79,4.79,0,0,0,3.51-1.12,4.94,4.94,0,0,0,1.08-3.51,3.95,3.95,0,0,0-4.59-4.63Z" transform="translate(-78.55 -54.51)"/><path d="M131.82,357.63h2.11v8a3.41,3.41,0,0,0,.77,2.46,3.28,3.28,0,0,0,2.47.79,3.36,3.36,0,0,0,2.47-.79,3.49,3.49,0,0,0,.77-2.46v-8h2.11v8a5,5,0,0,1-1.4,3.83,5.59,5.59,0,0,1-3.94,1.3,5.53,5.53,0,0,1-3.92-1.28,5.06,5.06,0,0,1-1.42-3.85Z" transform="translate(-78.55 -54.51)"/><path d="M156.72,358.31a4.15,4.15,0,0,1,1.55,3.11h-2.09a2.77,2.77,0,0,0-1-1.71,3.5,3.5,0,0,0-2.12-.52,4,4,0,0,0-1.85.34,1.37,1.37,0,0,0-.79,1.33,1.44,1.44,0,0,0,.9,1.31,17,17,0,0,0,2.2.79,18.48,18.48,0,0,1,3.37,1.26,3.07,3.07,0,0,1,1.67,2.77,3.23,3.23,0,0,1-1.35,2.74,7.9,7.9,0,0,1-7.52.07,4.34,4.34,0,0,1-1.76-3.58H150a3,3,0,0,0,1,2.09,4,4,0,0,0,2.34.56,4.53,4.53,0,0,0,2.23-.47,1.48,1.48,0,0,0,.83-1.28,1.81,1.81,0,0,0-1.21-1.62,23.84,23.84,0,0,0-2.5-.85,20,20,0,0,1-3-1.08,2.84,2.84,0,0,1-1.48-2.59,3,3,0,0,1,1.44-2.68,6.94,6.94,0,0,1,7,0Z" transform="translate(-78.55 -54.51)"/><path d="M163,357.63h10.53v1.8h-4.21v11.05h-2.11V359.43H163Z" transform="translate(-78.55 -54.51)"/><path d="M178.62,357.63h5.72a4.9,4.9,0,0,1,3.11.88,3.43,3.43,0,0,1,1.21,2.81,3.08,3.08,0,0,1-.54,1.78,2.75,2.75,0,0,1-1.64,1.13v0a2.33,2.33,0,0,1,1.89,2.25l.22,2.07a3.11,3.11,0,0,0,.77,1.89h-2.29a3.21,3.21,0,0,1-.56-1.67l-.16-1.58a2.17,2.17,0,0,0-.65-1.51,2.48,2.48,0,0,0-1.66-.47h-3.33v5.24h-2.11Zm2.11,1.8v4h3.33a3,3,0,0,0,1.89-.52,1.94,1.94,0,0,0,.59-1.51,1.78,1.78,0,0,0-.59-1.51,3,3,0,0,0-1.89-.47Z" transform="translate(-78.55 -54.51)"/><path d="M194.77,357.63h2.11v12.85h-2.11Z" transform="translate(-78.55 -54.51)"/><path d="M206.65,357.63H209L214,370.48h-2.25l-1.17-3.22h-5.38L204,370.48h-2.25Zm-.86,7.9h4.12l-2-5.63h-.07Z" transform="translate(-78.55 -54.51)"/><path d="M218.82,357.63h2.09v11.05h6.95v1.8h-9Z" transform="translate(-78.55 -54.51)"/><path d="M242.67,357.63h4.7a6.18,6.18,0,0,1,4.73,1.73,7.9,7.9,0,0,1,0,9.4,6.18,6.18,0,0,1-4.73,1.73h-4.7Zm2.11,1.8v9.25H247a4.8,4.8,0,0,0,3.51-1.12,4.94,4.94,0,0,0,1.08-3.51,3.95,3.95,0,0,0-4.59-4.63Z" transform="translate(-78.55 -54.51)"/><path d="M259.23,357.63h9.27v1.8h-7.16V363h6.73v1.8h-6.73v3.89h7.47v1.8h-9.58Z" transform="translate(-78.55 -54.51)"/><path d="M282.46,358.31a4.15,4.15,0,0,1,1.55,3.11h-2.09a2.77,2.77,0,0,0-1-1.71,3.5,3.5,0,0,0-2.12-.52,4,4,0,0,0-1.85.34,1.37,1.37,0,0,0-.79,1.33,1.44,1.44,0,0,0,.9,1.31,17,17,0,0,0,2.2.79,18.48,18.48,0,0,1,3.37,1.26A3.07,3.07,0,0,1,284.3,367a3.24,3.24,0,0,1-1.35,2.74,7.9,7.9,0,0,1-7.52.07,4.34,4.34,0,0,1-1.76-3.58h2.09a3,3,0,0,0,1,2.09,4,4,0,0,0,2.34.56,4.53,4.53,0,0,0,2.23-.47,1.48,1.48,0,0,0,.83-1.28,1.81,1.81,0,0,0-1.21-1.62,23.81,23.81,0,0,0-2.5-.85,20,20,0,0,1-3-1.08,2.84,2.84,0,0,1-1.48-2.59,3,3,0,0,1,1.44-2.68,6.94,6.94,0,0,1,7,0Z" transform="translate(-78.55 -54.51)"/><path d="M289.7,357.63h2.11v12.85H289.7Z" transform="translate(-78.55 -54.51)"/><path d="M307.41,358.47a4.85,4.85,0,0,1,1.73,3.22H307a3,3,0,0,0-1.15-1.85,4.06,4.06,0,0,0-2.36-.61,3.57,3.57,0,0,0-2.86,1.22,6.41,6.41,0,0,0-.13,7.15,4.32,4.32,0,0,0,3.46,1.3,6.66,6.66,0,0,0,1.73-.22,5.64,5.64,0,0,0,1.39-.59v-2.65h-3.4v-1.8h5.51v5.44a7.25,7.25,0,0,1-2.34,1.22,10.56,10.56,0,0,1-3.11.43,6,6,0,0,1-4.77-1.94,6.83,6.83,0,0,1-1.58-4.68,7.06,7.06,0,0,1,1.58-4.75,5.6,5.6,0,0,1,4.54-2A6.24,6.24,0,0,1,307.41,358.47Z" transform="translate(-78.55 -54.51)"/><path d="M315.13,357.63h2.11l6.35,9.27h.07v-9.27h2.12v12.85h-2.05l-6.43-9.4h-.07v9.4h-2.11Z" transform="translate(-78.55 -54.51)"/></svg>