<?xml version="1.0" standalone="no"?><!DOCTYPE svg PUBLIC "-//W3C//DTD SVG 1.1//EN" "http://www.w3.org/Graphics/SVG/1.1/DTD/svg11.dtd"><svg t="1500647347712" class="icon" style="" viewBox="0 0 1024 1024" version="1.1" xmlns="http://www.w3.org/2000/svg" p-id="4541" xmlns:xlink="http://www.w3.org/1999/xlink" width="200" height="200"><defs><style type="text/css"></style></defs><path d="M462.145848 195.059782c0-27.509304 22.279167-49.820095 49.807932-49.820095 27.522683 0 49.834691 22.310791 49.834691 49.806716L561.788471 671.464443c0 27.509304-22.325387 49.821312-49.834691 49.821312-27.515386 0-49.807932-22.325387-49.807932-49.821312L462.145848 195.059782 462.145848 195.059782zM462.145848 195.059782" p-id="4542" fill="#505050"></path><path d="M449.673796 817.812189c0 16.300999 6.714036 32.508342 18.241015 44.034104 11.530628 11.526979 27.731889 18.239799 44.038969 18.239799 16.300999 0 32.50226-6.714036 44.034104-18.239799 11.526979-11.526979 18.239799-27.733105 18.239799-44.034104 0-16.305864-6.714036-32.508342-18.239799-44.034104-11.530628-11.530628-27.733105-18.239799-44.034104-18.239799-16.30708 0-32.508342 6.709171-44.038969 18.239799C456.387832 785.303847 449.673796 801.505109 449.673796 817.812189L449.673796 817.812189zM449.673796 817.812189" p-id="4543" fill="#505050"></path></svg>