<?xml version="1.0" encoding="utf-8"?>
<!-- Generator: Adobe Illustrator 21.1.0, SVG Export Plug-In . SVG Version: 6.00 Build 0)  -->
<svg version="1.1" id="图层_1" xmlns="http://www.w3.org/2000/svg" xmlns:xlink="http://www.w3.org/1999/xlink" x="0px" y="0px"
	 viewBox="0 0 467.6 117.5" style="enable-background:new 0 0 467.6 117.5;" xml:space="preserve">
<style type="text/css">
	.st0{fill:#EBEBEB;}
	.st1{enable-background:new    ;}
</style>
<title>logowhite</title>
<path class="st0" d="M58.8,0C26.3,0,0,26.3,0,58.8s26.3,58.8,58.8,58.8s58.8-26.3,58.8-58.8S91.2,0,58.8,0z M37.5,69.1v4.3h-20v-28
	H23v23.1h14.5V69.1z M71,73.4h-5.7l-0.2-0.3l-6.4-9.6l-6.4,9.6l-0.2,0.3h-6.8l0.6-0.9L55.3,59l-8.8-12.7l-0.6-0.9h6.8l0.2,0.3
	l5.8,8.8l5.8-8.7l0.2-0.3h6.8l-0.7,0.9L62.1,59l9.4,13.5l0.6,0.9H71z M100.4,49.7v0.6H86.5v6.3h13.1v4.9H86.5v11.9h-5.6v-28h19.5
	V49.7L100.4,49.7z"/>
<path class="st0" d="M168.5,14.7h4.6v24h15.1v3.9h-19.7L168.5,14.7L168.5,14.7z"/>
<path class="st0" d="M194.5,14.7h5.6l6.6,9.9l6.6-9.9h5.6l-9.4,13.5l10.1,14.5H214l-7.2-10.8l-7.2,10.8H194l10-14.5L194.5,14.7z"/>
<path class="st0" d="M227.1,14.7h19.1v3.9h-14.5v7.8h13.7v3.9h-13.7v12.4h-4.6V14.7z"/>
<path class="st0" d="M272.5,14.7h9.8c4.3,0,7.5,1.3,9.6,4c2,2.4,2.9,5.7,2.9,10c0,4.2-1.1,7.5-3.4,10.1c-2.4,2.6-5.7,3.9-9.9,3.9
	h-9.1v-28C272.4,14.7,272.5,14.7,272.5,14.7z M274.1,16.1v25.1h7.4c3.8,0,6.8-1.2,8.9-3.5s3.1-5.3,3-9.1c0-4-0.8-7.1-2.5-9.2
	c-1.9-2.3-4.8-3.4-8.7-3.4L274.1,16.1z"/>
<path class="st0" d="M318.9,25.1c1.3,1.8,2.1,4.5,2.2,8h-16.9c-0.1,2.3,0.7,4.6,2.1,6.4c1.4,1.6,3.4,2.5,5.5,2.4
	c1.8,0.1,3.6-0.5,4.9-1.7c1.1-1.1,1.9-2.5,2.3-4h1.6c-0.4,1.8-1.3,3.5-2.6,4.8c-1.7,1.5-3.9,2.3-6.1,2.2c-2.6,0.1-5-1-6.7-2.9
	c-1.8-2.2-2.7-4.9-2.5-7.8c-0.1-2.7,0.8-5.3,2.4-7.4s4.1-3.3,6.8-3.2C315,21.9,317.4,22.9,318.9,25.1z M306.5,25.6
	c-1.4,1.7-2.2,3.9-2.3,6.1h15.4c-0.4-5.6-3-8.5-7.7-8.5C309.9,23.2,307.9,24,306.5,25.6L306.5,25.6z"/>
<path class="st0" d="M344.1,28h-1.5c-0.2-1.3-0.8-2.6-1.8-3.5c-1.3-1-2.9-1.4-4.5-1.3c-1.4-0.1-2.8,0.3-4,1.1
	c-1,0.5-1.6,1.6-1.6,2.7c0,1.2,0.8,2.3,1.9,2.8c1.4,0.6,2.9,1.1,4.4,1.5c1.8,0.4,3.6,1,5.3,1.8c1.5,0.7,2.5,2.3,2.5,4
	c0,4-2.6,6-7.9,6c-5,0-7.8-2.3-8.3-6.8h1.6c0,1.6,0.8,3.2,2,4.3c1.4,0.9,3,1.3,4.7,1.2c4.2,0,6.4-1.5,6.4-4.6c0-1.4-0.9-2.6-2.1-3.1
	c-1.5-0.7-3.1-1.2-4.7-1.5c-1.7-0.4-3.4-1-4.9-1.8c-1.4-0.7-2.2-2.2-2.2-3.8c0-1.6,0.8-3,2.1-3.8c1.5-1,3.2-1.5,5-1.4
	C340.9,21.9,343.5,23.9,344.1,28z"/>
<path class="st0" d="M356.4,16c0.3,0.3,0.5,0.7,0.5,1.1c0,0.9-0.7,1.5-1.6,1.6c-0.4,0-0.8-0.2-1.1-0.5c-0.3-0.3-0.5-0.7-0.5-1.1
	s0.2-0.8,0.5-1.1c0.3-0.3,0.7-0.5,1.1-0.5C355.7,15.5,356.1,15.7,356.4,16z M354.6,22.4h1.5v20.2h-1.5V22.4z"/>
<path class="st0" d="M383.1,27.1v-4.7h1.5v18.7c0,6.6-3,9.9-8.9,9.9c-2.1,0.1-4.3-0.5-6-1.8c-1.4-1.2-2.3-3-2.5-4.8h1.5
	c0.2,1.5,0.9,2.8,2,3.8c1.5,1,3.2,1.6,5,1.5c4.9,0,7.4-2.8,7.4-8.4V37c-1.2,3.3-4.3,5.4-7.8,5.2c-2.6,0.1-5.2-1-6.8-3.1
	c-1.5-2-2.4-4.5-2.3-7c-0.1-2.6,0.7-5.1,2.3-7.1c1.6-2.1,4.2-3.2,6.8-3.1C378.8,21.7,382,23.9,383.1,27.1z M369.8,25.9
	c-1.4,1.7-2.1,3.9-2,6.2c-0.1,2.2,0.6,4.3,1.9,6.1c1.4,1.8,3.5,2.8,5.8,2.7c2.2,0.1,4.3-0.9,5.7-2.6c1.3-1.8,2-3.9,1.9-6.2
	c0.1-2.2-0.6-4.4-1.9-6.2c-1.4-1.8-3.5-2.8-5.7-2.7C373.3,23.1,371.1,24.1,369.8,25.9z"/>
<path class="st0" d="M410.2,30.3v12.4h-1.5V30.3c0-4.7-2.1-7-6.2-7c-1.7,0-3.4,0.7-4.6,2c-1.3,1.4-2,3.3-2,5.2v12.3h-1.5V22.4h1.5
	v3.7c0.6-1.3,1.6-2.3,2.7-3.1c1.2-0.8,2.6-1.2,4.1-1.1C407.7,21.9,410.2,24.7,410.2,30.3z"/>
<path class="st0" d="M423.4,40c0.6,0.6,0.6,1.6,0,2.2c-0.3,0.3-0.7,0.5-1.1,0.5s-0.8-0.2-1.1-0.5c-0.3-0.3-0.5-0.7-0.5-1.1
	c0-0.4,0.2-0.8,0.5-1.1s0.7-0.5,1.1-0.5C422.8,39.5,423.2,39.7,423.4,40z"/>
<path class="st0" d="M168.8,81.7H181v-3.5h1.1v3.5h11.8v1h-10.2c2.2,2.7,6.1,5,11.7,7.1l-0.7,0.9c-5.7-2.4-9.7-5-11.9-8h-0.6v6.7
	H181v-6.7h-0.8c-2.3,3.4-6.4,6.3-12.1,8.5l-0.5-1c5.5-1.9,9.3-4.4,11.7-7.5h-10.4L168.8,81.7L168.8,81.7z M172.9,91h16.4v1
	c-2.1,1.6-4.4,3-6.7,4.3v2.1h12.6v1h-12.6v4.9c0.2,1.1-0.6,2.1-1.7,2.3c-0.2,0-0.4,0-0.6,0h-4l-0.3-1h3.9c0.8,0.1,1.5-0.4,1.6-1.2
	c0-0.1,0-0.2,0-0.3v-4.6h-13.8v-1h13.8v-2.7c2.1-1.1,4.2-2.4,6.2-3.8h-14.9v-1C172.8,91,172.9,91,172.9,91z"/>
<path class="st0" d="M210.9,80.8v20.6H205v2.6h-1V80.8H210.9z M205,90.3h4.9v-8.5H205V90.3z M205,100.3h4.9v-9H205V100.3z
	 M225,106.3c-1.3,0-1.9-0.7-1.9-2.1v-8.6h-4.2v1c0.1,2.3-0.5,4.6-1.7,6.6c-1.5,1.7-3.4,3-5.6,3.6l-0.6-0.9c2.1-0.6,4-1.8,5.4-3.4
	c1-1.8,1.6-3.8,1.5-5.8v-1h-5v-1.1h16.7v1.1h-5.5v8.5c0,0.9,0.4,1.3,1.2,1.3h1.7c0.5,0.1,1-0.1,1.4-0.5c0.4-0.5,0.6-1.9,0.7-4.3
	l1,0.3c-0.2,2.5-0.5,4.1-1,4.8c-0.5,0.5-1.3,0.8-2,0.7L225,106.3z M229,80.9l0.1,1l-9.3,0.8c0.3,1.2,0.7,2.5,1.3,3.6
	c0.3,0.5,0.6,1,0.9,1.5c1.8-1,3.4-2.3,4.8-3.7l0.8,0.6c-1.4,1.6-3.1,2.9-5,4c0.4,0.5,0.8,0.9,1.3,1.3c0.8,0.7,1.8,1.1,2.8,1.2
	c0.8-0.1,1.6-1.3,2.4-3.8L230,88c-0.9,2.8-2,4.2-3.1,4.2c-1.2-0.1-2.4-0.5-3.4-1.3c-0.6-0.5-1.2-1.1-1.7-1.7
	c-2.5,1.3-5.2,2.3-7.9,2.9l-0.4-0.9c2.7-0.6,5.3-1.6,7.7-2.8c-0.3-0.5-0.6-0.9-0.9-1.4c-0.7-1.3-1.1-2.6-1.4-4l-5.7,0.5l-0.2-1
	l5.6-0.4c-0.3-1.2-0.6-2.5-0.8-3.8l1.1-0.1c0.2,1.4,0.5,2.7,0.8,3.8L229,80.9z"/>
<path class="st0" d="M237.9,105.7c2.2-2.2,3.9-4.8,4.9-7.7c0.7-2.8,1.1-5.6,1-8.5V80h14.3v23.3c-0.1,0.7,0.4,1.4,1.1,1.5
	c0.1,0,0.2,0,0.4,0h2.3c0.6,0,1.1-0.1,1.6-0.2c0.5-0.2,0.9-0.7,0.9-1.3c0.2-1.8,0.3-3.6,0.3-5.4l1,0.3c0,2.2-0.1,3.8-0.2,5
	c0,0.9-0.4,1.8-1.2,2.3c-0.8,0.3-1.6,0.5-2.4,0.4h-2.3c-1.8,0-2.6-0.8-2.6-2.5V81h-12.1v8.4c0.1,3.2-0.3,6.3-1.3,9.3
	c-1,2.9-2.7,5.5-4.9,7.7L237.9,105.7z M247.8,87.2c2.5,2.6,4.8,5.5,6.9,8.5l-0.9,0.6c-2-3.1-4.3-5.9-6.8-8.6L247.8,87.2z"/>
<path class="st0" d="M272.7,88.3h5.8v15c1.6-1.2,3-2.5,4.5-3.8l0.3,1.2c-1.8,1.8-3.8,3.3-5.9,4.7l-0.4-0.9c0.3-0.2,0.5-0.6,0.5-1
	v-14h-4.7L272.7,88.3L272.7,88.3z M275.4,78.8c2,1.5,3.8,3.2,5.5,5l-0.8,0.8c-1.6-1.8-3.5-3.5-5.5-5L275.4,78.8z M283.8,91.8h14.4v1
	c-1.1,3.2-3,6-5.6,8.2c2.6,1.9,5.5,3.5,8.6,4.6l-0.6,0.9c-3.1-1.2-6.1-2.8-8.8-4.8c-2.9,2.2-6.1,3.8-9.6,4.9l-0.6-0.9
	c3.4-1,6.5-2.6,9.3-4.6c-2.6-2.1-4.6-5-5.6-8.2h-1.6L283.8,91.8z M286.5,79.7h9.6v7.1c-0.1,0.6,0.3,1.2,1,1.3c0.1,0,0.2,0,0.3,0h3.1
	v1h-3.3c-1.1,0.1-2.1-0.7-2.2-1.8c0-0.1,0-0.3,0-0.4v-6.2h-7.5v1.4c0.1,3.3-1.7,6.4-4.6,7.9l-0.7-0.8c2.6-1.3,4.3-4,4.3-7
	L286.5,79.7z M286.4,92.9c1,3,2.9,5.6,5.4,7.6c2.4-2,4.2-4.6,5.3-7.5L286.4,92.9z"/>
<path class="st0" d="M307.8,88.2h6v14.9c1.6-1.3,3.1-2.6,4.6-4l0.3,1.1c-1.8,1.8-3.8,3.5-6,4.9l-0.4-0.9c0.3-0.2,0.5-0.5,0.5-0.9
	v-14h-5V88.2z M310.7,78.6c2.1,1.5,4,3.2,5.7,5.1l-0.7,0.8c-1.7-1.9-3.6-3.6-5.7-5.2L310.7,78.6z M317.6,88.1h8.9v-9.9h1.1v9.9h8.5
	v1.1h-8.5v17.6h-1.1V89.1h-8.9V88.1z"/>
<path class="st0" d="M346.5,103.1h-2.8v-2.7h2.8V103.1z"/>
<g class="st1">
	<path class="st0" d="M452.7,1.6c2.5,0,4.9,0.6,7.3,1.9c2.4,1.3,4.3,3.2,5.5,5.5s2,4.9,2,7.4s-0.6,5-2,7.4s-3.2,4.2-5.5,5.5
		c-2.4,1.3-4.8,2-7.4,2s-5-0.6-7.4-2c-2.4-1.3-4.2-3.2-5.5-5.5s-2-4.8-2-7.4s0.6-5,2-7.4s3.2-4.2,5.5-5.5
		C447.6,2.1,450.3,1.6,452.7,1.6z M452.7,4.1c-2.1,0-4.2,0.5-6.1,1.6c-2,1-3.5,2.6-4.7,4.5s-1.6,4-1.6,6.2c0,2.1,0.5,4.2,1.6,6.2
		c1.1,2,2.6,3.5,4.5,4.5c2,1.1,4,1.6,6.2,1.6c2.1,0,4.2-0.5,6.2-1.6c2-1.1,3.5-2.6,4.5-4.5c1.1-2,1.6-4,1.6-6.2s-0.5-4.3-1.6-6.2
		c-1.1-1.9-2.6-3.5-4.7-4.5C456.9,4.7,454.9,4.1,452.7,4.1z M446.3,24.7v-16h5.5c1.9,0,3.3,0.1,4,0.5c0.8,0.4,1.5,0.8,2,1.5
		c0.5,0.8,0.8,1.5,0.8,2.4c0,1.1-0.4,2.1-1.3,3c-0.9,0.9-1.9,1.4-3.3,1.5c0.5,0.3,1,0.5,1.4,0.9c0.6,0.6,1.4,1.6,2.4,3.2l1.9,3.2
		h-3.2l-1.4-2.5c-1.1-2-2-3.3-2.6-3.8c-0.5-0.4-1.1-0.5-2-0.5h-1.5v6.8h-2.8V24.7z M448.8,15.7h3.2c1.5,0,2.5-0.3,3-0.6
		c0.5-0.5,0.8-1,0.8-1.8c0-0.5-0.1-0.9-0.4-1.3c-0.3-0.4-0.6-0.6-1.1-0.9c-0.5-0.1-1.4-0.3-2.6-0.3h-2.9v4.8H448.8z"/>
</g>
</svg>
