<svg xmlns="http://www.w3.org/2000/svg" viewBox="0 0 400 400"><defs><style>.a{fill:#ccc;}</style></defs><title>logo</title><path class="a" d="M200,18A182,182,0,0,1,328.69,328.69,182,182,0,1,1,71.31,71.31,180.81,180.81,0,0,1,200,18m0-18C89.54,0,0,89.54,0,200S89.54,400,200,400s200-89.54,200-200S310.46,0,200,0Z"/><polygon class="a" points="222.86 248.91 199.84 214.38 176.82 248.91 156.08 248.91 189.41 200.68 158.12 155.52 178.87 155.52 199.84 186.97 220.81 155.52 241.57 155.52 210.02 200.68 243.61 248.91 222.86 248.91"/><path class="a" d="M239.65,156.52,208.8,200.68l32.9,47.23h-18.3l-23.55-35.33-23.55,35.33H158l32.64-47.23L160,156.52h18.3l21.5,32.26,21.5-32.26h18.3m3.84-2H220.27l-.59.89-19.84,29.76L180,155.41l-.59-.89H156.21l2.17,3.14,29.8,43-31.85,46.09-2.17,3.14h23.19L178,249l21.89-32.83L221.73,249l.59.89h23.2l-2.19-3.14-32.1-46.09,30-43,2.2-3.15Z"/><polygon class="a" points="276.31 248.91 276.31 155.52 340.64 155.52 340.64 170.32 293.28 170.32 293.28 193.66 337.95 193.66 337.95 208.46 293.28 208.46 293.28 248.91 276.31 248.91"/><path class="a" d="M339.64,156.52v12.8H292.28v25.34H337v12.8H292.28v40.45h-15V156.52h62.34m2-2H275.3v95.39h19V209.46H339v-16.8H294.28V171.32h47.36v-16.8Z"/><polygon class="a" points="60.3 248.91 60.3 155.52 77.15 155.52 77.15 234.11 126.56 234.11 126.56 248.91 60.3 248.91"/><path class="a" d="M76.15,156.52v78.59h49.41v12.8H61.3V156.52H76.15m2-2H59.3v95.39h68.26v-16.8H78.15V154.52Z"/></svg>