<?xml version="1.0" encoding="utf-8"?>
<!-- Generator: Adobe Illustrator 21.1.0, SVG Export Plug-In . SVG Version: 6.00 Build 0)  -->
<svg version="1.1" id="图层_1" xmlns="http://www.w3.org/2000/svg" xmlns:xlink="http://www.w3.org/1999/xlink" x="0px" y="0px"
	 viewBox="0 0 400 400" style="enable-background:new 0 0 400 400;" xml:space="preserve">
<style type="text/css">
	.st0{fill:#F4F4F4;}
</style>
<title>logo</title>
<path class="st0" d="M200,18c100.5,0,182,81.5,182,182c0,48.3-19.2,94.6-53.3,128.7c-70.6,71.6-185.8,72.4-257.4,1.9
	S-1.1,144.8,69.4,73.2c0.6-0.6,1.2-1.3,1.9-1.9C105.4,37.1,151.7,17.9,200,18 M200,0C89.5,0,0,89.5,0,200s89.5,200,200,200
	s200-89.5,200-200S310.5,0,200,0z"/>
<polygon class="st0" points="222.9,248.9 199.8,214.4 176.8,248.9 156.1,248.9 189.4,200.7 158.1,155.5 178.9,155.5 199.8,187 
	220.8,155.5 241.6,155.5 210,200.7 243.6,248.9 "/>
<path class="st0" d="M239.6,156.5l-30.8,44.2l32.9,47.2h-18.3l-23.6-35.3l-23.6,35.3H158l32.6-47.2L160,156.5h18.3l21.5,32.3
	l21.5-32.3H239.6 M243.4,154.5h-23.2l-0.6,0.9l-19.8,29.8L180,155.4l-0.6-0.9h-23.2l2.2,3.1l29.8,43l-31.9,46.1l-2.2,3.1h23.2
	l0.6-0.9l21.9-32.8l21.8,32.8l0.6,0.9h23.2l-2.2-3.1l-32.1-46.1l30-43L243.4,154.5L243.4,154.5z"/>
<polygon class="st0" points="276.3,248.9 276.3,155.5 340.6,155.5 340.6,170.3 293.3,170.3 293.3,193.7 338,193.7 338,208.5 
	293.3,208.5 293.3,248.9 "/>
<path class="st0" d="M339.6,156.5v12.8h-47.4v25.3H337v12.8h-44.7v40.4h-15v-91.4L339.6,156.5 M341.6,154.5h-66.3v95.4h19v-40.4H339
	v-16.8h-44.7v-21.3h47.4L341.6,154.5L341.6,154.5z"/>
<polygon class="st0" points="60.3,248.9 60.3,155.5 77.2,155.5 77.2,234.1 126.6,234.1 126.6,248.9 "/>
<path class="st0" d="M76.2,156.5v78.6h49.4v12.8H61.3v-91.4H76.2 M78.2,154.5H59.3v95.4h68.3v-16.8H78.2V154.5z"/>
</svg>
