<svg xmlns="http://www.w3.org/2000/svg" viewBox="0 0 395.88 117.51"><defs><style>.a{fill:#ebebeb;}</style></defs><title>logowhite</title><path class="a" d="M58.65,0A58.75,58.75,0,1,0,117.4,58.75,58.75,58.75,0,0,0,58.65,0ZM37.37,69.07v4.35H17.32v-28h5.54V68.48H37.37ZM70.9,73.42H65.21L65,73.15,58.6,63.51l-6.43,9.65-.17.26H45.19l.64-.92L55.18,59,46.42,46.31l-.64-.92H52.6l.17.26L58.6,54.4l5.83-8.74.17-.26h6.82l-.65.92L62,59l9.43,13.54.64.92Zm29.36-23.68v.59H86.35V56.6H99.47v4.94H86.35V73.42H80.77v-28h19.49v4.35Z" transform="translate(0.11)"/><path class="a" d="M140.43,23.7H145V47.75h15.12v3.92H140.43Z" transform="translate(0.11)"/><path class="a" d="M166.4,23.7H172l6.58,9.87,6.58-9.87h5.6l-9.44,13.51,10.07,14.45h-5.6l-7.21-10.81-7.21,10.81h-5.6l10-14.45Z" transform="translate(0.11)"/><path class="a" d="M199,23.7H218.1v3.92H203.61v7.76h13.67v3.92H203.61V51.67H199Z" transform="translate(0.11)"/><path class="a" d="M244.42,23.7h9.83q6.5,0,9.64,4,2.94,3.53,2.94,10,0,6.27-3.37,10.07-3.57,3.92-9.91,3.92h-9.13ZM246,25.11V50.26h7.44q5.76,0,8.89-3.45t3-9.13q0-6-2.51-9.17-2.82-3.41-8.66-3.41Z" transform="translate(0.11)"/><path class="a" d="M290.84,34.08q2,2.74,2.23,8H276.15a9.77,9.77,0,0,0,2.15,6.38,7,7,0,0,0,5.52,2.43,7.21,7.21,0,0,0,4.93-1.68,8.31,8.31,0,0,0,2.27-4h1.61A9.84,9.84,0,0,1,290,50a8.83,8.83,0,0,1-6.15,2.19,8.29,8.29,0,0,1-6.7-2.94,11.42,11.42,0,0,1-2.55-7.76A11.48,11.48,0,0,1,277,34.08a8.28,8.28,0,0,1,6.78-3.21Q288.49,30.87,290.84,34.08Zm-12.42.55a10.07,10.07,0,0,0-2.27,6.07h15.35q-.63-8.46-7.68-8.46A6.75,6.75,0,0,0,278.42,34.63Z" transform="translate(0.11)"/><path class="a" d="M316,37h-1.49a5.51,5.51,0,0,0-1.8-3.45,6.93,6.93,0,0,0-4.54-1.33,6.59,6.59,0,0,0-4,1.1,3.13,3.13,0,0,0-1.64,2.7,3.17,3.17,0,0,0,1.92,2.82,22.75,22.75,0,0,0,4.35,1.49,21.77,21.77,0,0,1,5.29,1.84,4.39,4.39,0,0,1,2.47,4q0,6-7.87,6-7.56,0-8.26-6.82H302A5.78,5.78,0,0,0,304,49.63a7.52,7.52,0,0,0,4.66,1.21q6.35,0,6.35-4.62a3.31,3.31,0,0,0-2.12-3.06,24.64,24.64,0,0,0-4.7-1.53,19.61,19.61,0,0,1-4.94-1.8,4.22,4.22,0,0,1-2.23-3.76,4.36,4.36,0,0,1,2.12-3.8,8.71,8.71,0,0,1,5-1.41Q315.09,30.87,316,37Z" transform="translate(0.11)"/><path class="a" d="M328.29,25a1.35,1.35,0,0,1,.47,1.1,1.61,1.61,0,0,1-1.57,1.57,1.42,1.42,0,0,1-1.1-.47,1.5,1.5,0,0,1-.47-1.1,1.35,1.35,0,0,1,.47-1.1,1.42,1.42,0,0,1,1.1-.47A1.51,1.51,0,0,1,328.29,25Zm-1.84,6.42h1.49V51.67h-1.49Z" transform="translate(0.11)"/><path class="a" d="M355,36.12v-4.7h1.53V50.1q0,9.87-8.89,9.87a9.18,9.18,0,0,1-6-1.76,7.41,7.41,0,0,1-2.51-4.82h1.49a6.17,6.17,0,0,0,2,3.76,7.8,7.8,0,0,0,5,1.45q7.36,0,7.36-8.38V46a7.85,7.85,0,0,1-7.76,5.21,8.37,8.37,0,0,1-6.82-3.09,11,11,0,0,1-2.27-7.05A10.78,10.78,0,0,1,340.47,34a8.26,8.26,0,0,1,6.82-3.13A7.86,7.86,0,0,1,355,36.12ZM341.68,34.9a9.28,9.28,0,0,0-2,6.15,9.73,9.73,0,0,0,1.88,6.07,6.89,6.89,0,0,0,5.8,2.7,7,7,0,0,0,5.72-2.62A9.82,9.82,0,0,0,355,41.05a9.72,9.72,0,0,0-1.92-6.15,6.85,6.85,0,0,0-5.72-2.66A6.78,6.78,0,0,0,341.68,34.9Z" transform="translate(0.11)"/><path class="a" d="M382.1,39.25V51.67h-1.53V39.29q0-7.05-6.19-7.05a6,6,0,0,0-4.58,2,7.48,7.48,0,0,0-2,5.17V51.67h-1.53V31.42h1.53V35.1A7.6,7.6,0,0,1,370.55,32a7.35,7.35,0,0,1,4.07-1.14Q382.11,30.87,382.1,39.25Z" transform="translate(0.11)"/><path class="a" d="M395.34,49a1.56,1.56,0,0,1,0,2.19,1.5,1.5,0,0,1-1.1.47,1.42,1.42,0,0,1-1.1-.47,1.5,1.5,0,0,1-.47-1.1,1.35,1.35,0,0,1,.47-1.1,1.42,1.42,0,0,1,1.1-.47A1.55,1.55,0,0,1,395.34,49Z" transform="translate(0.11)"/><path class="a" d="M140.7,76.71h12.19V73.23H154v3.48h11.78v1H155.55q3.29,4,11.69,7.14l-.69.88q-8.62-3.57-11.94-8H154v6.71h-1.07V77.74h-.81q-3.51,5.17-12.13,8.46l-.53-1q8.18-2.85,11.69-7.49H140.7ZM144.77,86h16.45v1a59.74,59.74,0,0,1-6.74,4.29v2.1h12.6v1h-12.6v4.92a2,2,0,0,1-2.26,2.26h-4l-.25-1,3.85,0A1.44,1.44,0,0,0,153.45,99V94.44H139.66v-1h13.79V90.78a63.32,63.32,0,0,0,6.2-3.76H144.77Z" transform="translate(0.11)"/><path class="a" d="M182.84,75.8V96.38h-5.92V99h-1.07V75.8Zm-5.92,9.53h4.89V76.83h-4.89Zm0,10h4.89v-9h-4.89Zm20,6q-1.94,0-1.94-2.07V90.62h-4.17v1a11.49,11.49,0,0,1-1.72,6.58,11.51,11.51,0,0,1-5.55,3.6l-.63-.94a10.9,10.9,0,0,0,5.39-3.42,10.67,10.67,0,0,0,1.5-5.83v-1h-5V89.55h16.67v1.07H196v8.46q0,1.28,1.19,1.28h1.69a1.73,1.73,0,0,0,1.41-.5q.53-.75.72-4.26l1,.31q-.25,3.79-1,4.76a2.55,2.55,0,0,1-2,.69Zm3.95-25.44.12,1-9.31.78a16.27,16.27,0,0,0,1.28,3.6,14.33,14.33,0,0,0,.88,1.47A20.12,20.12,0,0,0,198.67,79l.81.63a20.41,20.41,0,0,1-5,4,12.25,12.25,0,0,0,1.28,1.29,5.43,5.43,0,0,0,2.79,1.19q1.25-.09,2.38-3.76l.88.56q-1.38,4.2-3.13,4.2a5.76,5.76,0,0,1-3.35-1.32,8.76,8.76,0,0,1-1.72-1.69,36,36,0,0,1-7.9,2.91l-.44-.94A34.52,34.52,0,0,0,193,83.22a15.47,15.47,0,0,1-.91-1.44,16.1,16.1,0,0,1-1.44-4l-5.67.47-.16-1,5.58-.44a37.13,37.13,0,0,1-.78-3.79l1.07-.13q.31,2.07.75,3.82Z" transform="translate(0.11)"/><path class="a" d="M209.82,100.65a19.71,19.71,0,0,0,4.89-7.74,30.63,30.63,0,0,0,1-8.46V75H230V98.26a1.33,1.33,0,0,0,1.5,1.5h2.32a5.6,5.6,0,0,0,1.63-.22,1.57,1.57,0,0,0,.91-1.32,36.9,36.9,0,0,0,.25-5.36l1,.28q0,3.23-.19,5a2.73,2.73,0,0,1-1.19,2.26,5.59,5.59,0,0,1-2.41.41h-2.32q-2.63,0-2.63-2.54V76h-12.1v8.43a29,29,0,0,1-1.25,9.34,21.08,21.08,0,0,1-4.86,7.68Zm9.84-18.49a64,64,0,0,1,6.86,8.49l-.91.63a59.94,59.94,0,0,0-6.8-8.55Z" transform="translate(0.11)"/><path class="a" d="M244.58,83.25h5.8v15a47.09,47.09,0,0,0,4.45-3.85l.28,1.16a40.32,40.32,0,0,1-5.89,4.73l-.44-.94a1.48,1.48,0,0,0,.53-1v-14h-4.73Zm2.76-9.46a38.28,38.28,0,0,1,5.45,5l-.75.75a37.82,37.82,0,0,0-5.45-5Zm8.3,13h14.45v1a19.2,19.2,0,0,1-5.58,8.24,34.46,34.46,0,0,0,8.62,4.57l-.6.91a35.34,35.34,0,0,1-8.77-4.83,29.54,29.54,0,0,1-9.59,4.86l-.59-.91a30.47,30.47,0,0,0,9.34-4.64,17.92,17.92,0,0,1-5.64-8.18h-1.63Zm2.73-12.06H268v7.11a1.15,1.15,0,0,0,1.29,1.32h3.1v1h-3.26A2,2,0,0,1,266.92,82V75.8h-7.46v1.41a8.75,8.75,0,0,1-4.64,7.9l-.72-.81a7.69,7.69,0,0,0,4.26-7Zm-.06,13.13a16.6,16.6,0,0,0,5.36,7.55A18.29,18.29,0,0,0,269,87.89Z" transform="translate(0.11)"/><path class="a" d="M279.67,83.19h6V98.14a58.1,58.1,0,0,0,4.58-4l.25,1.13a40.51,40.51,0,0,1-6,4.92l-.44-.94a1.28,1.28,0,0,0,.53-.91V84.26h-5Zm2.92-9.56a39.16,39.16,0,0,1,5.67,5.14l-.72.75a41.43,41.43,0,0,0-5.7-5.17Zm6.86,9.43h8.93V73.2h1.13v9.87H308v1.07h-8.49v17.58h-1.13V84.13h-8.93Z" transform="translate(0.11)"/><path class="a" d="M318.43,98.06h-2.82V95.37h2.82Z" transform="translate(0.11)"/></svg>