<svg xmlns="http://www.w3.org/2000/svg" viewBox="0 0 398.09 118.95"><title>logo</title><path d="M59.93,112A50.53,50.53,0,0,1,15.45,85.37H58l1.87-2.81,1.87,2.81H95.19v-12h13.28V62h.8V50.84A50.5,50.5,0,0,1,59.93,112ZM10.88,73.44a50.68,50.68,0,0,1,0-23.83Zm23.6-11.07V45.86l11,15.87-.44.64ZM58.63,39H14.77a50.47,50.47,0,0,1,90.33,0h-44l-1.26,1.89Z" transform="translate(-0.46 -2.05)"/><path d="M59.93,20A41.29,41.29,0,0,1,86.86,30H33A41.29,41.29,0,0,1,59.93,20M85.24,94.37a41.4,41.4,0,0,1-50.61,0H85.24M59.93,2a59.48,59.48,0,1,0,59.48,59.48A59.48,59.48,0,0,0,59.93,2ZM80.54,76.37V48h19.73v5H86.19v6.35H99.47v5H86.19v12H80.54ZM59.89,57.11l5.9-8.85L66,48h6.9l-.65.94L63.28,61.73l9.55,13.71.65.93h-6.9l-.18-.26-6.51-9.76L53.38,76.1l-.18.26H46.3l.64-.93,9.47-13.71L47.56,48.93,46.91,48h6.9l.18.26,5.9,8.85Zm-40,19.25V48h5.61V71.37H40.18v5H19.88Z" transform="translate(-0.46 -2.05)"/><path d="M141.78,24.7h4.57V48.89h15.2v3.94H141.78Z" transform="translate(-0.46 -2.05)"/><path d="M167.89,24.7h5.63l6.62,9.93,6.62-9.93h5.63L182.9,38.29,193,52.83h-5.63L180.14,42,172.9,52.83h-5.63l10-14.53Z" transform="translate(-0.46 -2.05)"/><path d="M200.7,24.7h19.18v3.94H205.31v7.8h13.75v3.94H205.31V52.83H200.7Z" transform="translate(-0.46 -2.05)"/><path d="M246.35,24.7h9.89q6.54,0,9.69,4,3,3.54,3,10.08,0,6.3-3.39,10.12-3.58,3.94-10,3.94h-9.18Zm1.54,1.42V51.41h7.48q5.79,0,8.94-3.47t3-9.18q0-6-2.52-9.22-2.84-3.43-8.71-3.43Z" transform="translate(-0.46 -2.05)"/><path d="M293,35.14q2,2.76,2.25,8h-17a9.82,9.82,0,0,0,2.17,6.42A7,7,0,0,0,286,52a7.25,7.25,0,0,0,5-1.69,8.36,8.36,0,0,0,2.28-4h1.62a9.9,9.9,0,0,1-2.68,4.88A8.87,8.87,0,0,1,286,53.38a8.33,8.33,0,0,1-6.74-3,11.48,11.48,0,0,1-2.56-7.8,11.55,11.55,0,0,1,2.44-7.48,8.33,8.33,0,0,1,6.81-3.23Q290.66,31.91,293,35.14Zm-12.49.55a10.12,10.12,0,0,0-2.28,6.1H293.7q-.63-8.51-7.72-8.51A6.79,6.79,0,0,0,280.54,35.69Z" transform="translate(-0.46 -2.05)"/><path d="M318.35,38.09h-1.5A5.55,5.55,0,0,0,315,34.63a7,7,0,0,0-4.57-1.34,6.63,6.63,0,0,0-4,1.1,3.15,3.15,0,0,0-1.65,2.72,3.19,3.19,0,0,0,1.93,2.84,22.79,22.79,0,0,0,4.37,1.5,21.91,21.91,0,0,1,5.32,1.85,4.42,4.42,0,0,1,2.48,4q0,6.07-7.92,6.07-7.6,0-8.31-6.85h1.54a5.8,5.8,0,0,0,2.09,4.25A7.56,7.56,0,0,0,311,52q6.38,0,6.38-4.65a3.33,3.33,0,0,0-2.13-3.07,24.82,24.82,0,0,0-4.73-1.54,19.72,19.72,0,0,1-5-1.81,4.24,4.24,0,0,1-2.25-3.78,4.38,4.38,0,0,1,2.13-3.82,8.76,8.76,0,0,1,5-1.42Q317.41,31.91,318.35,38.09Z" transform="translate(-0.46 -2.05)"/><path d="M330.68,26a1.35,1.35,0,0,1,.47,1.1,1.62,1.62,0,0,1-1.58,1.58,1.43,1.43,0,0,1-1.1-.47,1.51,1.51,0,0,1-.47-1.1,1.35,1.35,0,0,1,.47-1.1,1.43,1.43,0,0,1,1.1-.47A1.51,1.51,0,0,1,330.68,26Zm-1.85,6.46h1.5V52.83h-1.5Z" transform="translate(-0.46 -2.05)"/><path d="M357.58,37.19V32.46h1.54V51.25q0,9.93-8.94,9.93a9.23,9.23,0,0,1-6.07-1.77,7.44,7.44,0,0,1-2.52-4.84h1.5a6.2,6.2,0,0,0,2,3.78,7.84,7.84,0,0,0,5,1.46q7.4,0,7.41-8.43V47.11a7.9,7.9,0,0,1-7.8,5.24,8.42,8.42,0,0,1-6.85-3.11,11,11,0,0,1-2.28-7.09,10.84,10.84,0,0,1,2.28-7.09,8.31,8.31,0,0,1,6.85-3.15A7.9,7.9,0,0,1,357.58,37.19ZM344.15,36a9.34,9.34,0,0,0-2,6.18,9.78,9.78,0,0,0,1.89,6.11A6.93,6.93,0,0,0,349.9,51a7.07,7.07,0,0,0,5.75-2.64,9.87,9.87,0,0,0,1.93-6.18A9.77,9.77,0,0,0,355.66,36a7.51,7.51,0,0,0-11.5,0Z" transform="translate(-0.46 -2.05)"/><path d="M384.8,40.34V52.83h-1.54V40.38q0-7.09-6.22-7.09a6,6,0,0,0-4.61,2,7.52,7.52,0,0,0-2,5.2V52.83h-1.54V32.46h1.54v3.7a7.65,7.65,0,0,1,2.76-3.11,7.4,7.4,0,0,1,4.1-1.14Q384.8,31.91,384.8,40.34Z" transform="translate(-0.46 -2.05)"/><path d="M398.11,50.15a1.49,1.49,0,0,1,.43,1.1A1.62,1.62,0,0,1,397,52.83a1.43,1.43,0,0,1-1.1-.47,1.51,1.51,0,0,1-.47-1.1,1.36,1.36,0,0,1,.47-1.1,1.43,1.43,0,0,1,1.1-.47A1.55,1.55,0,0,1,398.11,50.15Z" transform="translate(-0.46 -2.05)"/><path d="M142,78H154.3V74.5h1.07V78h11.85v1H157q3.31,4,11.75,7.18l-.69.88q-8.67-3.59-12-8.07h-.66v6.74H154.3V79h-.82q-3.53,5.2-12.19,8.51l-.54-1Q149,83.71,152.51,79H142Zm4.1,9.36h16.54v1a60.07,60.07,0,0,1-6.77,4.32V94.8h12.67v1H155.91v4.95a2,2,0,0,1-2.27,2.27h-4l-.25-1,3.88,0a1.45,1.45,0,0,0,1.64-1.64V95.84H141v-1h13.86V92.15a63.62,63.62,0,0,0,6.24-3.78h-15Z" transform="translate(-0.46 -2.05)"/><path d="M184.43,77.09v20.7h-6v2.62H177.4V77.09Zm-6,9.58h4.92V78.13h-4.92Zm0,10.08h4.92v-9h-4.92Zm20.14,6.05q-2,0-2-2.08V92h-4.19v1a11.55,11.55,0,0,1-1.73,6.62,11.57,11.57,0,0,1-5.58,3.62l-.63-.95a11,11,0,0,0,5.42-3.43A10.73,10.73,0,0,0,191.45,93V92h-5V90.92h16.76V92h-5.55v8.51q0,1.29,1.2,1.29h1.7a1.74,1.74,0,0,0,1.42-.5q.53-.76.72-4.29l1,.31q-.25,3.81-1,4.79a2.56,2.56,0,0,1-2,.69Zm4-25.59.13,1-9.36.79a16.36,16.36,0,0,0,1.29,3.62,14.46,14.46,0,0,0,.88,1.48,20.24,20.24,0,0,0,4.82-3.81l.82.63a20.54,20.54,0,0,1-5,4,12.35,12.35,0,0,0,1.29,1.29,5.46,5.46,0,0,0,2.8,1.2q1.26-.09,2.39-3.78l.88.57q-1.39,4.22-3.15,4.22A5.79,5.79,0,0,1,197,87.11a8.8,8.8,0,0,1-1.73-1.7,36.15,36.15,0,0,1-7.94,2.93l-.44-.95a34.75,34.75,0,0,0,7.75-2.84,15.55,15.55,0,0,1-.91-1.45,16.18,16.18,0,0,1-1.45-4l-5.7.47-.16-1,5.61-.44a37.57,37.57,0,0,1-.79-3.81l1.07-.13q.31,2.08.76,3.84Z" transform="translate(-0.46 -2.05)"/><path d="M211.56,102.08a19.84,19.84,0,0,0,4.92-7.78,30.8,30.8,0,0,0,1-8.51V76.24h14.34V99.68a1.34,1.34,0,0,0,1.51,1.51h2.33a5.64,5.64,0,0,0,1.64-.22,1.58,1.58,0,0,0,.91-1.32,37.11,37.11,0,0,0,.25-5.39l1,.28q0,3.25-.19,5a2.75,2.75,0,0,1-1.2,2.27,5.62,5.62,0,0,1-2.43.41h-2.33q-2.65,0-2.65-2.55V77.31H218.58v8.48a29.15,29.15,0,0,1-1.26,9.39,21.18,21.18,0,0,1-4.88,7.72Zm9.89-18.59a64.32,64.32,0,0,1,6.9,8.54l-.91.63a60.31,60.31,0,0,0-6.84-8.6Z" transform="translate(-0.46 -2.05)"/><path d="M246.5,84.59h5.83V99.65a47.36,47.36,0,0,0,4.47-3.88l.28,1.17a40.57,40.57,0,0,1-5.92,4.76l-.44-.95a1.48,1.48,0,0,0,.54-1V85.66H246.5Zm2.77-9.52a38.46,38.46,0,0,1,5.48,5l-.76.76a38.09,38.09,0,0,0-5.48-5.07Zm8.35,13.11h14.53v1a19.31,19.31,0,0,1-5.61,8.29,34.67,34.67,0,0,0,8.67,4.6l-.6.91a35.57,35.57,0,0,1-8.82-4.85,29.71,29.71,0,0,1-9.64,4.88l-.6-.91a30.66,30.66,0,0,0,9.39-4.66,18,18,0,0,1-5.67-8.22h-1.64ZM260.37,76h9.71V83.2a1.16,1.16,0,0,0,1.29,1.32h3.12v1h-3.28A2,2,0,0,1,269,83.33V77.09h-7.5v1.42a8.8,8.8,0,0,1-4.66,7.94l-.72-.82a7.73,7.73,0,0,0,4.29-7Zm-.06,13.2a16.69,16.69,0,0,0,5.39,7.59,18.39,18.39,0,0,0,5.39-7.59Z" transform="translate(-0.46 -2.05)"/><path d="M281.8,84.52h6v15a58.5,58.5,0,0,0,4.6-4l.25,1.13a40.73,40.73,0,0,1-6,4.95l-.44-.95a1.29,1.29,0,0,0,.54-.91V85.6h-5Zm2.93-9.61a39.37,39.37,0,0,1,5.7,5.17l-.72.76a41.68,41.68,0,0,0-5.74-5.2Zm6.9,9.48h9V74.47h1.13V84.4h8.54v1.07h-8.54v17.68h-1.13V85.47h-9Z" transform="translate(-0.46 -2.05)"/><path d="M320.77,99.48h-2.83V96.77h2.83Z" transform="translate(-0.46 -2.05)"/></svg>