<svg width='200' height='200' fill="#000000" xmlns="http://www.w3.org/2000/svg" xmlns:xlink="http://www.w3.org/1999/xlink" version="1.1" x="0px" y="0px" viewBox="0 0 100 100" enable-background="new 0 0 100 100" xml:space="preserve"><g><path d="M93.236,16.507H6.764C5.791,16.507,5,17.298,5,18.271v63.459c0,0.973,0.791,1.764,1.764,1.764h86.472   c0.973,0,1.764-0.791,1.764-1.764V18.271C95,17.298,94.209,16.507,93.236,16.507z M33.297,56.435   c0.351,0.222,0.754,0.353,1.179,0.353c1.221,0,2.214-0.993,2.214-2.214c0-0.372,0.145-0.722,0.407-0.985s0.612-0.407,0.985-0.407h0   c0.768,0,1.392,0.625,1.392,1.392c0,1.221,0.993,2.214,2.214,2.214c1.221,0,2.214-0.993,2.214-2.214c0-0.541,0.325-1.012,0.8-1.24   l1.443,2.491L30.822,82.366l-0.057,0.099l0,0l0,0l0.356,0.205H18.12L33.297,56.435z M33.706,55.728l6.187-10.696l4.389,7.578   c-0.723,0.374-1.202,1.126-1.202,1.964c0,0.768-0.625,1.392-1.392,1.392s-1.392-0.625-1.392-1.392c0-1.221-0.993-2.214-2.214-2.214   c0,0,0,0,0,0c-0.592,0-1.148,0.23-1.566,0.648c-0.418,0.418-0.648,0.974-0.648,1.566c0,0.768-0.625,1.392-1.392,1.392   C34.198,55.966,33.933,55.878,33.706,55.728z M53.962,43.932c0.518,0.799,1.404,1.304,2.395,1.304c1.579,0,2.863-1.284,2.863-2.863   c0-1.126,0.916-2.041,2.041-2.041c1.126,0,2.041,0.916,2.041,2.041c0,1.579,1.284,2.863,2.863,2.863   c0.916,0,1.744-0.431,2.274-1.127l22.264,38.562H31.596l15.51-26.827l-0.011-0.019L53.962,43.932z M54.454,43.079l6.695-11.597   l6.815,11.803c-0.343,0.677-1.017,1.128-1.799,1.128c-1.126,0-2.041-0.916-2.041-2.041c0-1.579-1.284-2.863-2.863-2.863   c-1.579,0-2.863,1.284-2.863,2.863c0,1.126-0.916,2.041-2.041,2.041C55.496,44.414,54.75,43.877,54.454,43.079z M94.178,81.729   c0,0.519-0.423,0.942-0.942,0.942h-2.058l0.356-0.205L68.892,43.249c0.001-0.003,0.002-0.005,0.003-0.008l-0.009-0.003   l-7.736-13.399L46.62,55.005l-6.727-11.613L17.289,82.465l0.356,0.206H6.764c-0.519,0-0.942-0.423-0.942-0.942V18.271   c0-0.519,0.423-0.942,0.942-0.942h86.472c0.519,0,0.942,0.423,0.942,0.942V81.729z"/><path d="M26.318,24.355c-3.669,0-6.654,2.985-6.654,6.654c0,3.669,2.985,6.654,6.654,6.654s6.654-2.985,6.654-6.654   C32.972,27.34,29.987,24.355,26.318,24.355z M26.318,36.841c-3.216,0-5.832-2.616-5.832-5.832c0-3.216,2.616-5.832,5.832-5.832   s5.832,2.616,5.832,5.832C32.15,34.225,29.534,36.841,26.318,36.841z"/><path d="M35.205,30.89h-1.233c-0.227,0-0.411,0.184-0.411,0.411s0.184,0.411,0.411,0.411h1.233c0.227,0,0.411-0.184,0.411-0.411   S35.432,30.89,35.205,30.89z"/><path d="M26.164,23.699c0.227,0,0.411-0.184,0.411-0.411v-1.233c0-0.227-0.184-0.411-0.411-0.411c-0.227,0-0.411,0.184-0.411,0.411   v1.233C25.753,23.515,25.937,23.699,26.164,23.699z"/><path d="M22.15,24.421c0.076,0.132,0.214,0.206,0.356,0.206c0.07,0,0.14-0.018,0.205-0.055c0.197-0.114,0.264-0.365,0.15-0.561   l-0.622-1.078c-0.113-0.197-0.365-0.264-0.561-0.15c-0.197,0.113-0.264,0.365-0.15,0.561L22.15,24.421z"/><path d="M18.362,26.759l1.078,0.622c0.065,0.037,0.135,0.055,0.205,0.055c0.142,0,0.28-0.074,0.356-0.206   c0.113-0.197,0.046-0.448-0.15-0.561l-1.078-0.622c-0.196-0.114-0.448-0.046-0.561,0.15C18.098,26.394,18.166,26.645,18.362,26.759   z"/><path d="M18.973,31.096c0-0.227-0.184-0.411-0.411-0.411h-1.233c-0.227,0-0.411,0.184-0.411,0.411c0,0.227,0.184,0.411,0.411,0.411   h1.233C18.789,31.507,18.973,31.323,18.973,31.096z"/><path d="M19.371,34.414l-1.078,0.622c-0.197,0.114-0.264,0.365-0.15,0.561c0.076,0.132,0.214,0.206,0.356,0.206   c0.07,0,0.14-0.018,0.205-0.055l1.078-0.622c0.197-0.114,0.264-0.365,0.15-0.561C19.819,34.368,19.568,34.301,19.371,34.414z"/><path d="M22.592,37.275c-0.197-0.114-0.448-0.046-0.561,0.15l-0.622,1.078c-0.113,0.197-0.046,0.448,0.15,0.561   c0.065,0.037,0.135,0.055,0.205,0.055c0.142,0,0.28-0.074,0.356-0.206l0.622-1.078C22.855,37.639,22.788,37.388,22.592,37.275z"/><path d="M25.959,38.288c-0.227,0-0.411,0.184-0.411,0.411v1.233c0,0.227,0.184,0.411,0.411,0.411c0.227,0,0.411-0.184,0.411-0.411   v-1.233C26.37,38.472,26.186,38.288,25.959,38.288z"/><path d="M30.487,37.494c-0.113-0.197-0.365-0.264-0.561-0.15c-0.197,0.113-0.264,0.365-0.15,0.561l0.622,1.078   c0.076,0.132,0.214,0.206,0.356,0.206c0.07,0,0.14-0.018,0.205-0.055c0.197-0.114,0.264-0.365,0.15-0.561L30.487,37.494z"/><path d="M34.275,35.156l-1.078-0.622c-0.196-0.114-0.448-0.046-0.561,0.15c-0.114,0.197-0.046,0.448,0.15,0.561l1.078,0.622   c0.065,0.037,0.135,0.055,0.205,0.055c0.142,0,0.28-0.074,0.356-0.206C34.539,35.521,34.471,35.27,34.275,35.156z"/><path d="M33.061,27.556c0.07,0,0.14-0.018,0.205-0.055l1.078-0.622c0.197-0.113,0.264-0.365,0.15-0.561   c-0.114-0.197-0.365-0.264-0.561-0.15l-1.078,0.622c-0.197,0.114-0.264,0.365-0.15,0.561   C32.781,27.482,32.919,27.556,33.061,27.556z"/><path d="M30.045,24.641c0.065,0.037,0.135,0.055,0.205,0.055c0.142,0,0.28-0.074,0.356-0.206l0.622-1.078   c0.113-0.197,0.046-0.448-0.15-0.561c-0.196-0.114-0.448-0.046-0.561,0.15l-0.622,1.078C29.782,24.276,29.849,24.527,30.045,24.641   z"/></g></svg>