<svg width='200' height='200' fill="#000000" xmlns="http://www.w3.org/2000/svg" xmlns:xlink="http://www.w3.org/1999/xlink" version="1.1" x="0px" y="0px" viewBox="0 0 100 100" enable-background="new 0 0 100 100" xml:space="preserve"><path d="M84.582,59.425c-2.673,0-3.359-3.843-4.311-9.162c-0.328-1.833-0.83-4.646-1.356-6.051  c-0.525,1.405-1.028,4.218-1.355,6.051c-0.95,5.318-1.637,9.161-4.309,9.161c-2.671,0-3.356-3.843-4.306-9.161  c-0.327-1.832-0.828-4.641-1.353-6.048c-0.525,1.407-1.027,4.216-1.354,6.048c-0.95,5.318-1.637,9.161-4.308,9.161  s-3.357-3.843-4.307-9.161c-0.327-1.832-0.829-4.641-1.354-6.048c-0.524,1.407-1.026,4.216-1.354,6.047  c-0.949,5.319-1.636,9.162-4.307,9.162c-2.671,0-3.357-3.843-4.307-9.161c-0.327-1.831-0.829-4.64-1.353-6.047  c-0.524,1.407-1.025,4.215-1.353,6.046c-0.949,5.319-1.635,9.162-4.306,9.162c-2.67,0-3.355-3.843-4.304-9.161  c-0.327-1.831-0.828-4.638-1.352-6.045c-0.524,1.407-1.025,4.215-1.352,6.045c-0.949,5.318-1.635,9.161-4.306,9.161  c-2.671,0-3.357-3.843-4.306-9.161c-0.327-1.832-0.829-4.64-1.353-6.047c-0.524,1.407-1.026,4.216-1.353,6.047  c-0.949,5.318-1.635,9.161-4.306,9.161s-3.357-3.843-4.307-9.161c-0.396-2.215-1.047-5.861-1.685-6.725  C10,43.388,9.5,42.79,9.5,42.075c0-0.829,0.671-1.5,1.5-1.5c2.671,0,3.357,3.843,4.307,9.161c0.327,1.832,0.829,4.641,1.354,6.048  c0.524-1.407,1.026-4.216,1.353-6.048c0.949-5.318,1.635-9.161,4.306-9.161s3.357,3.843,4.306,9.161  c0.327,1.831,0.829,4.64,1.353,6.047c0.524-1.407,1.025-4.216,1.353-6.047c0.949-5.318,1.635-9.161,4.306-9.161  c2.67,0,3.355,3.843,4.304,9.161c0.327,1.831,0.828,4.638,1.352,6.046c0.524-1.408,1.025-4.216,1.352-6.046  c0.949-5.318,1.635-9.161,4.305-9.161c2.671,0,3.357,3.843,4.307,9.161c0.327,1.832,0.829,4.642,1.354,6.048  c0.525-1.406,1.027-4.216,1.354-6.048c0.949-5.318,1.636-9.161,4.307-9.161s3.357,3.843,4.307,9.161  c0.327,1.832,0.829,4.642,1.354,6.049c0.525-1.406,1.027-4.217,1.354-6.049c0.95-5.318,1.637-9.161,4.308-9.161  s3.356,3.843,4.306,9.161c0.327,1.832,0.829,4.642,1.354,6.049c0.525-1.406,1.027-4.217,1.354-6.049  c0.95-5.318,1.637-9.161,4.309-9.161s3.358,3.842,4.31,9.16c0.328,1.834,0.831,4.65,1.357,6.054  c0.526-1.404,1.029-4.219,1.357-6.053c0.951-5.318,1.638-9.161,4.311-9.161c0.828,0,1.5,0.671,1.5,1.5c0,0.715-0.5,1.313-1.17,1.463  c-0.64,0.863-1.291,4.51-1.688,6.726C87.941,55.582,87.255,59.425,84.582,59.425z"/></svg>