<?xml version="1.0" encoding="utf-8"?>
<!-- Generator: Adobe Illustrator 21.1.0, SVG Export Plug-In . SVG Version: 6.00 Build 0)  -->
<svg version="1.1" id="图层_2" xmlns="http://www.w3.org/2000/svg" xmlns:xlink="http://www.w3.org/1999/xlink" x="0px" y="0px"
	 viewBox="0 0 400 400" style="enable-background:new 0 0 400 400;" xml:space="preserve">
<style type="text/css">
	.st0{fill:#707070;}
</style>
<g>
	<path class="st0" d="M86.1,136.8h11v78.8c0,13.9,3,24.3,9,31.1c6.5,7.4,16.5,11.2,30.1,11.2c13.6,0,23.6-3.7,30.1-11.2
		c6-7.1,9-17.5,9-31.1v-78.8h11v78.8c0,16.6-4,29.3-12.1,38.3c-8.5,9.2-21.2,13.9-38,13.9c-16.8,0-29.4-4.6-37.8-13.7
		c-8.2-8.9-12.2-21.7-12.2-38.5V136.8z"/>
	<path class="st0" d="M204,136.8h13.7l37.4,52.7l37.6-52.7h13.7l-44.6,61.7l48.4,66.8h-13.9l-41.2-58.1l-41.2,58.1h-13.7l48.2-66.8
		L204,136.8z"/>
</g>
</svg>
