<?xml version="1.0" standalone="no"?><!DOCTYPE svg PUBLIC "-//W3C//DTD SVG 1.1//EN" "http://www.w3.org/Graphics/SVG/1.1/DTD/svg11.dtd"><svg t="1500796339983" class="icon" style="" viewBox="0 0 1024 1024" version="1.1" xmlns="http://www.w3.org/2000/svg" p-id="6732" xmlns:xlink="http://www.w3.org/1999/xlink" width="200" height="200"><defs><style type="text/css"></style></defs><path d="M546.760688 1009.189689l401.196405-401.196404c9.30083-9.30083 14.422478-21.666462 14.422478-34.819017 0-13.153578-5.122671-25.520233-14.423501-34.821063s-21.666462-14.423501-34.82004-14.423501c-13.152555 0-25.518187 5.121648-34.82004 14.423501L511.940648 904.730593 143.635351 536.426319c-9.30083-9.30083-21.666462-14.423501-34.819016-14.423501-13.153578 0-25.51921 5.121648-34.817994 14.423501-9.301853 9.30083-14.424524 21.667485-14.424524 34.82004 0 13.152555 5.121648 25.51921 14.423501 34.82004l403.125337 403.122267c9.299807 9.301853 21.666462 14.424524 34.819017 14.424524 13.152555 0 25.518187-5.122671 34.819016-14.423501zM947.957093 86.376253c9.30083-9.30083 14.422478-21.666462 14.422478-34.82004S957.2569 26.037003 947.95607 16.73515c-19.199271-19.199271-50.439786-19.199271-69.64008 0L511.940648 383.113561 143.635351 14.809287c-9.30083-9.30083-21.666462-14.423501-34.819016-14.423501-13.153578 0-25.51921 5.122671-34.817994 14.423501-9.301853 9.30083-14.424524 21.667485-14.424524 34.82004s5.121648 25.51921 14.423501 34.82004l403.125337 403.123291c9.299807 9.30083 21.665439 14.423501 34.819017 14.423501 13.153578 0 25.51921-5.122671 34.82004-14.422478l401.195381-401.197428z" fill="#C8C8C8" p-id="6733"></path></svg>