<?xml version="1.0" encoding="utf-8"?>
<!-- Generator: Adobe Illustrator 21.1.0, SVG Export Plug-In . SVG Version: 6.00 Build 0)  -->
<svg version="1.1" id="图层_1" xmlns="http://www.w3.org/2000/svg" xmlns:xlink="http://www.w3.org/1999/xlink" x="0px" y="0px"
	 viewBox="0 0 200 200" style="enable-background:new 0 0 200 200;" xml:space="preserve">
<style type="text/css">
	.st0{fill:#F4F4F4;}
</style>
<path class="st0" d="M150,91.6h-28.8c15-10.9,14-34.9,11.8-43.2c-0.2-0.8-0.9-1.4-1.7-1.5c-0.8-0.1-1.6,0.3-2,1
	c-0.6,1-1.2,2-1.9,3.1c2.6-13.6,0.8-22.4-5.9-29.8c-0.5-0.5-1.2-0.8-1.8-0.6c-0.7,0.1-1.3,0.6-1.5,1.2c-0.9,2.3-1.8,4.8-2.6,7.4
	c-1.4-6.6-3.8-15-7.3-18.6c-0.4-0.4-1-0.7-1.6-0.6c-0.6,0-1.1,0.4-1.5,0.9c-4.2,6-6.1,15-6.9,23.2c-0.4-1.3-0.8-2.6-1.3-3.9
	c-0.2-0.7-0.8-1.2-1.5-1.3c-0.7-0.2-1.4,0.1-1.9,0.6c-1,1-1.9,2.3-2.8,3.6c-0.8-4-1.8-7.2-3.5-11.6c-0.3-0.7-0.8-1.1-1.6-1.3
	c-0.7-0.1-1.4,0.2-1.9,0.7c-5.5,6.8-8,16.1-7.4,26.6c-3.7-5.7-7.9-11.5-12.1-16.5c-0.4-0.5-1-0.7-1.5-0.7c-0.6,0-1.1,0.3-1.5,0.7
	c-7.6,9-3.9,24.6,9.5,40.8c-0.6,6,0.7,12.8,5.3,19.8H50c-1.1,0-2,0.9-2,2V113c0,1.1,0.9,2,2,2h3.5l11.6,73.3c0.2,1,1,1.7,2,1.7h65.7
	c1,0,1.8-0.7,2-1.7l11.6-73.3h3.5c1.1,0,2-0.9,2-2V93.6C152,92.5,151.1,91.6,150,91.6z M130,54.3c1.4,10.3-0.5,32.9-18.1,37.3h-3.5
	c-0.2-0.1-5.3-4.2-7.5-6.3C111.5,76.6,121.6,67,130,54.3z M108.5,49.2c2.9,4.3,4.9,10.8,5.9,18.4c-2.4,2.5-4.9,5-7.5,7.5
	c-1.5,1.4-3.1,2.8-4.7,4.1C103.6,68.3,105.8,58.1,108.5,49.2z M120.7,26.6c5,7.5,5.1,17.2,0.4,33.2c-1.1,1.3-2.2,2.7-3.3,4
	c-0.9-5.5-2.5-10.2-4.5-14C114.5,46.1,119.3,30.4,120.7,26.6z M107,15.7c2.6,4.7,4.8,13.7,6,21.7c0,0,0,0,0,0.1
	c-0.1,0.3-1.7,5.5-2.5,7.9c-0.5-0.6-0.9-1.2-1.4-1.7c-0.5-0.5-1.2-0.7-1.9-0.5c-0.7,0.2-1.2,0.7-1.4,1.3c-1,2.9-1.8,5.9-2.7,9.1
	c-0.5-2.3-0.9-4.6-1.5-6.8C101.7,40,102.3,25,107,15.7z M94.4,35c2.6,8.5,4.8,18.2,6.4,28.4c-1.2,6-2.3,12.4-3.1,19
	c-2.9-2.8-8.8-9.7-8.9-9.7C86.9,56,89.8,42.1,94.4,35z M85,26.5c1.4,4,2.1,7.3,2.9,12.7C85.3,46,84,54.8,84.3,64.4
	c0-0.1-0.1-0.2-0.1-0.4C79,49.6,79.4,35.9,85,26.5z M63.1,35.7c5.5,6.9,11,14.9,14.8,21.8c0,0.1,0.9,3,1.3,4.4
	c-0.4-0.5-0.8-1-1.1-1.5c-0.4-0.5-1-0.9-1.7-0.8c-0.7,0-1.3,0.4-1.6,0.9c-1.2,1.8-2.2,3.9-2.9,6.3C62.6,54.5,59.3,42.9,63.1,35.7z
	 M76.8,65.2c6.6,8.5,15.3,17.7,25.1,26.4H81.2C73.5,81.8,73.7,71.9,76.8,65.2z M131.2,186H68.8l-11.3-71h84.9L131.2,186z M148,111
	H52V95.6h60.2c0,0,0,0,0,0c0,0,0,0,0,0H148V111z"/>
</svg>
