<?xml version="1.0" standalone="no"?><!DOCTYPE svg PUBLIC "-//W3C//DTD SVG 1.1//EN" "http://www.w3.org/Graphics/SVG/1.1/DTD/svg11.dtd"><svg t="1500646911608" class="icon" style="" viewBox="0 0 1024 1024" version="1.1" xmlns="http://www.w3.org/2000/svg" p-id="3253" xmlns:xlink="http://www.w3.org/1999/xlink" width="200" height="200"><defs><style type="text/css"></style></defs><path d="M388.672 607.808c0-132.8 127.104-240.832 283.648-240.832 8.064 0 16.064 0.32 23.936 0.896-26.048-117.12-149.312-205.824-297.536-205.824C231.488 162.048 96 274.88 96 414.144c0 79.04 33.664 142.592 102.208 188.736 13.312 9.024-13.312 111.872-13.312 111.872s82.368-52.16 119.552-55.104c26.432-2.048 64.128 6.208 92.608 6.464-5.568-18.688-8.384-38.144-8.384-58.304z m122.688-312.64c20.864 0 37.952 17.024 37.952 37.952 0 20.864-17.088 37.888-37.952 37.888-20.928 0-37.952-17.024-37.952-37.888 0-20.928 17.024-37.952 37.952-37.952z m-224.512 75.84c-20.992 0-37.952-17.024-37.952-37.888 0-20.928 16.96-37.952 37.952-37.952 20.864 0 37.824 17.024 37.824 37.952 0 20.864-16.896 37.888-37.824 37.888z" p-id="3254" fill="#EBEBEB"></path><path d="M416.576 607.808c0 117.632 114.496 212.992 255.744 212.992 24.192 0 56.896-7.296 79.616-5.504 31.36 2.432 100.992 46.656 100.992 46.656S830.4 774.976 841.6 767.424c57.856-39.04 86.4-92.672 86.4-159.616C928 490.24 813.504 394.88 672.32 394.88c-141.248 0-255.744 95.36-255.744 212.928z m318.144-68.416c0-17.6 14.336-31.936 31.936-31.936 17.792 0 32.128 14.336 32.128 31.936 0 17.728-14.336 32.192-32.128 32.192-17.6 0-31.936-14.464-31.936-32.192z m-189.696 0c0-17.6 14.4-31.936 32.064-31.936 17.728 0 32 14.336 32 31.936 0 17.728-14.272 32.192-32 32.192s-32.064-14.464-32.064-32.192z" p-id="3255" fill="#EBEBEB"></path></svg>