<?xml version="1.0" encoding="utf-8"?>
<!-- Generator: Adobe Illustrator 21.1.0, SVG Export Plug-In . SVG Version: 6.00 Build 0)  -->
<svg version="1.1" id="图层_1" xmlns="http://www.w3.org/2000/svg" xmlns:xlink="http://www.w3.org/1999/xlink" x="0px" y="0px"
	 viewBox="0 0 200 200" style="enable-background:new 0 0 200 200;" xml:space="preserve">
<style type="text/css">
	.st0{fill:#FFFDFD;}
</style>
<path class="st0" d="M119.2,99.9c-3.3,0-6.6,3.1-6.6,6.9c0,3.1,3.3,6.2,6.6,6.2c5,0,8.6-3.1,8.6-6.2
	C127.8,103,124.2,99.9,119.2,99.9 M97.4,67.8c5.2,0,8.6-3.3,8.6-8.3c0-5.2-3.3-8.3-8.6-8.3c-5,0-9.7,3.1-9.7,8.3
	C87.6,64.5,92.4,67.8,97.4,67.8 M72.4,136.9c-8.8,0-15.2-1.4-23.5-3.8l-24,12.1l6.9-20.4C15,112.9,5,98,5,79.7
	c0-32.3,30.4-57,67.4-57c32.8,0,62,19.5,67.7,47c-2.4-0.5-4.5-0.7-6.4-0.7c-32.3,0-57.2,24.2-57.2,53.4c0,5,0.7,9.5,1.9,14.3
	C76.5,136.9,74.3,136.9,72.4,136.9 M171.5,160.2l4.7,17.1l-18-10.2c-6.9,1.4-13.5,3.6-20.4,3.6c-31.8,0-57-21.9-57-48.9
	c0-27.1,25.2-48.9,57-48.9c30.2,0,57.2,21.9,57.2,48.9C195,136.9,184.8,150.5,171.5,160.2 M50.4,51.2c-5,0-10.2,3.1-10.2,8.3
	c0,5,5.2,8.3,10.2,8.3c4.7,0,8.5-3.3,8.5-8.3C58.9,54.3,55.1,51.2,50.4,51.2 M156.5,99.9c-3.6,0-6.6,3.1-6.6,6.9
	c0,3.1,3.1,6.2,6.6,6.2c4.8,0,8.3-3.1,8.3-6.2C164.8,103,161.3,99.9,156.5,99.9"/>
</svg>
