<?xml version="1.0" standalone="no"?><!DOCTYPE svg PUBLIC "-//W3C//DTD SVG 1.1//EN" "http://www.w3.org/Graphics/SVG/1.1/DTD/svg11.dtd"><svg t="1500646709781" class="icon" style="" viewBox="0 0 1049 1024" version="1.1" xmlns="http://www.w3.org/2000/svg" p-id="1735" xmlns:xlink="http://www.w3.org/1999/xlink" width="204.8828125" height="200"><defs><style type="text/css"></style></defs><path d="M0.519764 0zM765.026936 505.116952q-15.826126-3.170948-20.549989-9.482258t-1.585474-11.607404l3.170947-5.264523q1.045801-1.045801 2.125147-3.170948t4.218722-8.976129 4.757408-13.699994 2.631274-16.87094-0.538686-18.998061-6.344855-19.504189-13.194851-18.99806q-14.779339-14.779339-38.50225-18.998061t-47.445821-0.538686-44.811586 9.482258-34.790642 11.068719l-13.699993 6.344854q-10.561604 3.170948-17.412587 4.218722t-10.561604-0.538686-5.804195-3.170947-1.585474-7.38967 1.045801-10.020944 2.631275-13.194852 3.170947-14.239665q0-12.653206-1.585473-23.720938t-6.849997-24.767725-15.286454-22.13645-25.309371-13.699993-39.549036-3.170948-54.834504 12.653206q-36.915789 12.653206-74.877379 37.421917t-65.901249 51.661583-51.155455 52.202242-35.869988 41.134511l-11.607404 16.870941q-34.789656 45.352246-51.661583 90.703505t-15.826126 68.535483v22.136451q6.344855 50.615782 31.111593 90.703505t59.052239 64.855448 80.681574 42.180311 89.118031 25.309371 90.164819 11.068719q78.050299 6.344855 161.870264-12.11452t156.067054-63.810633 101.771237-108.62222q17.917728-36.915789 18.458388-69.61483t-11.068719-53.248043-30.065792-36.377103-34.789656-23.215795-28.98546-9.482258zM443.411556 833.076201q-113.885756 5.264523-193.489958-44.305458t-79.601242-125.494148q0-74.877379 79.0961-129.173196t194.028645-59.592899T637.473745 512.47209t79.0961 118.103492q0 75.925153-80.681574 136.562865t-192.44317 65.901249z m-30.570934-292.123792q-30.570934 3.170948-54.834504 14.239666t-37.96159 25.309371-23.215795 30.570934-13.194852 32.15838-4.757408 28.985461-1.045801 20.549989l1.045801 8.436457v4.218722q0 3.170948 2.125147 12.653206t5.804195 17.412586 12.11452 17.412587 20.044848 15.826126q69.614829 33.744841 129.711882 20.54999t97.013829-60.636726q14.779339-17.917728 19.504189-44.305458t-2.125147-53.248044-23.720937-49.030308-50.077096-34.284514-76.464825-6.849997z m-37.963563 199.327698q-6.344855 1.045801-12.114519 0.538686t-10.561604-2.125146-9.482258-3.677076-7.895797-5.804196-5.804196-7.389669-4.218722-8.436457-1.585474-10.020944q0-11.607405 6.344855-22.676123t17.412587-18.998061 24.767725-8.976129q9.482258-1.045801 18.458388 0.538686t15.286453 5.264523 11.068719 8.436457 6.849996 11.068718 2.126133 13.699993q0 11.607405-6.849996 22.13645t-18.458388 17.917729-25.308384 8.436457z m89.62416-75.925153q-7.389669 5.264523-15.286454 4.757408t-11.068718-6.849996l-2.126134-4.218722q-1.045801-2.126133-1.045801-4.218722v-4.218722q0-3.170948 1.045801-5.264523l2.126134-4.218721q1.045801-2.126133 3.170947-3.170948l3.170948-4.218722q8.436457-6.344855 16.332254-5.264523t11.068719 8.436457q3.170948 4.218722 2.631274 9.482258t-3.170947 10.020945-6.849997 8.976129z m374.357295-220.416374q6.344855 0 11.607404-3.170948t8.436457-7.895797 4.218722-10.020944q1.045801-1.045801 1.045801-3.170948 12.653206-120.230611-84.36161-137.101552-28.480318-5.264523-52.741915-1.045801-7.389669 0-12.653205 3.677076t-8.97613 9.482258-3.677076 12.114519q0 10.561604 7.389669 17.917729t17.917729 7.389669q82.268035-18.998061 88.578358 52.741915 2.125147 17.917728-2.125146 33.744842 0 10.561604 7.389669 17.917728t17.917728 7.389669z m-17.917728-297.353784q-46.398047-10.561604-124.448347 4.218722-1.045801 0-2.125146 1.045801l-1.045801 2.126133-1.045801 1.045801q-11.607405 3.170948-18.998061 13.194852t-7.389669 21.629335q0 15.826126 10.561603 26.354186t25.308385 10.561603h3.170947q1.045801 0 4.757408-1.045801t7.895798-1.585474 8.97613-2.125146 8.436457-3.170948 14.239665-1.585474 25.848058 1.585474 33.744841 7.895798 36.915789 15.826126 36.915789 26.354185 32.15838 39.008378q27.434517 62.22516 10.561604 120.230611 0 1.045801-0.538686 2.126133t-1.585474 5.264523-2.125147 7.895798-2.125146 9.482258-1.045801 10.020944q0 9.482258 5.264523 15.826126t13.194851 8.97613 18.458388 2.631275q29.527106 0 34.789656-35.869988 12.653206-41.134511 14.239666-78.556428t-5.264523-65.901249-20.54999-53.248043-31.651266-42.180312-40.087723-31.651266-42.719984-22.676123-42.719985-13.699993z" p-id="1736" fill="#EBEBEB"></path></svg>