<?xml version="1.0" encoding="utf-8"?>
<!-- Generator: Adobe Illustrator 21.1.0, SVG Export Plug-In . SVG Version: 6.00 Build 0)  -->
<svg version="1.1" id="图层_1" xmlns="http://www.w3.org/2000/svg" xmlns:xlink="http://www.w3.org/1999/xlink" x="0px" y="0px"
	 viewBox="0 0 90 90" style="enable-background:new 0 0 90 90;" xml:space="preserve">
<style type="text/css">
	.st0{fill:#9DFCF3;}
</style>
<g>
	<path class="st0" d="M70.9,46.8h-9.6c1.8-1.7,3.2-3.9,4.2-6.7c0.9-2.6,0.9-5.1,0.5-7.3c7.4-11.8,3.9-25,3.6-25.9l0,0l0,0l0,0
		c-0.1-0.2-0.1-0.3-0.2-0.5l0,0c-0.1-0.1-0.2-0.2-0.3-0.3c0,0,0,0-0.1,0C68.9,6,68.7,6,68.6,5.9h-0.1c0,0,0,0-0.1,0s-0.3,0-0.4,0
		l0,0h-0.1c0,0,0,0-0.1,0c-4.7,0.8-8.3,3.9-10.3,6.1c-2.9-7.2-8.4-10.3-9.8-11.1c-0.4-0.2-0.6-0.3-0.6-0.3l0,0
		c-0.1,0-0.2-0.1-0.4-0.1l0,0c-0.1,0-0.3,0-0.4,0c0,0,0,0-0.1,0s-0.1,0-0.2,0c0,0-0.1,0-0.1,0.1h-0.1c-0.1,0.1-0.2,0.1-0.3,0.2l0,0
		c-0.2,0.2-4.5,4-6.2,10.3c-7.4-6.6-12.7-5.1-13.1-5l0,0l0,0l0,0c-0.1,0-0.2,0.1-0.3,0.1c0,0-0.1,0-0.1,0.1c-0.1,0-0.1,0.1-0.2,0.2
		c0,0,0,0-0.1,0.1s-0.1,0.2-0.2,0.3l0,0c-0.1,0.1-0.1,0.2-0.1,0.3l0,0c-0.1,0.3-6.1,25.4,15.9,36.1c0.5,1.3,1.1,2.5,2,3.5H28.3
		c-0.8,0-1.5,0.7-1.5,1.5v8.3c0,0.8,0.7,1.5,1.5,1.5h1.5l4.3,24c0.7,2.9,2.1,4.3,4,4.3h22.5c2.9,0,3.8-3.3,4-4.4l4.7-23.9h1.6
		c0.8,0,1.5-0.7,1.5-1.5v-8.3C72.4,47.5,71.8,46.8,70.9,46.8z M64.7,29c-0.6-1.3-1.4-2.5-2.2-3.5c2.4-2.4,4.1-6.1,5.2-9.5
		C67.6,19.8,67,24.5,64.7,29z M66.3,9.4c-0.8,4.1-2.7,10.7-5.8,13.9c0,0,0,0-0.1-0.1c-0.3-0.3-0.7-0.7-1-1c0-0.5,0-1,0-1.5
		c-0.1-1.9-0.4-3.7-0.8-5.3C59.6,14.1,62.4,10.8,66.3,9.4z M62.6,39.2c-1.4,4.1-4.2,6.7-7.2,7.8c2.3-7,1.8-17.7,1.3-23.2
		C60.1,26.6,65,32,62.6,39.2z M56.3,19.8c-0.3-0.2-0.5-0.3-0.6-0.4l0,0c-0.1-0.1-0.2-0.1-0.4-0.2c0,0,0,0-0.1,0s-0.2,0-0.3,0h-0.1
		c0,0,0,0-0.1,0s-0.2,0-0.3,0.1l0,0c-0.1,0-0.2,0.1-0.3,0.2l0,0c-0.1,0.1-0.5,0.4-1.2,0.9c-0.4,0.3-0.8,0.6-1.3,1.1
		c0-0.6,0-1.1-0.1-1.7C51.3,14.6,50,9,49.1,5.5C51.9,7.7,55.6,12.2,56.3,19.8z M52,47.8c-0.1,0-0.2,0-0.3,0l0,0
		c-3.8,0-6.7-2.2-7.9-5.8c-2.2-7,6-15,10-18.4C54.2,29.1,54.9,41.6,52,47.8z M41.9,14.4c0.5-4.2,2.5-7.5,4-9.4
		c0.8,3,2.1,8.2,2.5,13.2c0.1,0.9,0.1,1.7,0.2,2.6c-1.6-1.8-3.1-3.2-4.4-4.4c-0.1-0.1-0.2-0.3-0.3-0.4l-2.1-1
		C41.8,14.8,41.9,14.6,41.9,14.4z M35.7,12L35.7,12c-0.1,0-0.1,0-0.2,0l0,0c-0.1,0-0.2,0.1-0.3,0.1l0,0c-0.1,0.1-0.2,0.1-0.3,0.2
		l0,0c-0.1,0.1-0.2,0.2-0.2,0.3l0,0c0,0.1-2.2,3.7-3,8.5c-1.9-4.5-2.9-9.8-3.2-12.4C29.7,8.9,32.3,9.5,35.7,12z M27.5,18.8
		c0.9,2.9,2.2,5.9,3.9,8.2c0.3,2.6,1.3,5.4,3.2,8C29.7,30.1,27.9,24,27.5,18.8z M40.7,36.9c-8-6-7-13.9-5.4-18.6
		c1.1,4.5,3.3,11.1,7,14.3C41.6,34,41,35.4,40.7,36.9z M37.8,15.7c2.1,1,5.7,3.4,10.2,9.1c-1.5,1.5-2.9,3.2-4.2,5.2
		C40.9,26.9,38.8,20.1,37.8,15.7z M61.7,81.4c-0.2,0.6-0.6,2.1-1.1,2.1H38.1c-0.4,0-0.8-0.8-1.1-2l-4.2-23.4h33.5L61.7,81.4z
		 M69.4,55.1H29.8v-5.3H47c1.4,0.6,3,1,4.7,1l0,0c1.6,0,3.3-0.3,4.9-1h12.8V55.1z"/>
</g>
</svg>
