<svg xmlns="http://www.w3.org/2000/svg" viewBox="0 0 1561 110"><defs><style>.a{fill:#f2f2f2;}</style></defs><title>装饰</title><rect class="a" y="40" width="30" height="30"/><rect class="a" y="40" width="30" height="30"/><rect class="a" x="30" y="80" width="30" height="30"/><rect class="a" x="30" width="30" height="30"/><rect class="a" x="60" y="40" width="30" height="30"/><rect class="a" x="60" y="40" width="30" height="30"/><rect class="a" x="90" y="80" width="30" height="30"/><rect class="a" x="90" width="30" height="30"/><rect class="a" x="120" y="40" width="30" height="30"/><rect class="a" x="120" y="40" width="30" height="30"/><rect class="a" x="150" y="80" width="30" height="30"/><rect class="a" x="150" width="30" height="30"/><rect class="a" x="180" y="40" width="30" height="30"/><rect class="a" x="180" y="40" width="30" height="30"/><rect class="a" x="210" y="80" width="30" height="30"/><rect class="a" x="210" width="30" height="30"/><rect class="a" x="240" y="40" width="30" height="30"/><rect class="a" x="240" y="40" width="30" height="30"/><rect class="a" x="270" y="80" width="30" height="30"/><rect class="a" x="270" width="30" height="30"/><rect class="a" x="300" y="40" width="30" height="30"/><rect class="a" x="300" y="40" width="30" height="30"/><rect class="a" x="330" y="80" width="30" height="30"/><rect class="a" x="330" width="30" height="30"/><rect class="a" x="360" y="40" width="30" height="30"/><rect class="a" x="360" y="40" width="30" height="30"/><rect class="a" x="390" y="80" width="30" height="30"/><rect class="a" x="390" width="30" height="30"/><rect class="a" x="420" y="40" width="30" height="30"/><rect class="a" x="420" y="40" width="30" height="30"/><rect class="a" x="450" y="80" width="30" height="30"/><rect class="a" x="450" width="30" height="30"/><rect class="a" x="480" y="40" width="30" height="30"/><rect class="a" x="480" y="40" width="30" height="30"/><rect class="a" x="510" y="80" width="30" height="30"/><rect class="a" x="510" width="30" height="30"/><rect class="a" x="540" y="40" width="30" height="30"/><rect class="a" x="540" y="40" width="30" height="30"/><rect class="a" x="570" y="80" width="30" height="30"/><rect class="a" x="570" width="30" height="30"/><rect class="a" x="600" y="40" width="30" height="30"/><rect class="a" x="600" y="40" width="30" height="30"/><rect class="a" x="630" y="80" width="30" height="30"/><rect class="a" x="630" width="30" height="30"/><rect class="a" x="660" y="40" width="30" height="30"/><rect class="a" x="660" y="40" width="30" height="30"/><rect class="a" x="690" y="80" width="30" height="30"/><rect class="a" x="690" width="30" height="30"/><rect class="a" x="720" y="40" width="30" height="30"/><rect class="a" x="720" y="40" width="30" height="30"/><rect class="a" x="750" y="80" width="30" height="30"/><rect class="a" x="750" width="30" height="30"/><rect class="a" x="781" y="40" width="30" height="30"/><rect class="a" x="781" y="40" width="30" height="30"/><rect class="a" x="811" y="80" width="30" height="30"/><rect class="a" x="811" width="30" height="30"/><rect class="a" x="841" y="40" width="30" height="30"/><rect class="a" x="841" y="40" width="30" height="30"/><rect class="a" x="871" y="80" width="30" height="30"/><rect class="a" x="871" width="30" height="30"/><rect class="a" x="901" y="40" width="30" height="30"/><rect class="a" x="901" y="40" width="30" height="30"/><rect class="a" x="931" y="80" width="30" height="30"/><rect class="a" x="931" width="30" height="30"/><rect class="a" x="961" y="40" width="30" height="30"/><rect class="a" x="961" y="40" width="30" height="30"/><rect class="a" x="991" y="80" width="30" height="30"/><rect class="a" x="991" width="30" height="30"/><rect class="a" x="1021" y="40" width="30" height="30"/><rect class="a" x="1021" y="40" width="30" height="30"/><rect class="a" x="1051" y="80" width="30" height="30"/><rect class="a" x="1051" width="30" height="30"/><rect class="a" x="1081" y="40" width="30" height="30"/><rect class="a" x="1081" y="40" width="30" height="30"/><rect class="a" x="1111" y="80" width="30" height="30"/><rect class="a" x="1111" width="30" height="30"/><rect class="a" x="1141" y="40" width="30" height="30"/><rect class="a" x="1141" y="40" width="30" height="30"/><rect class="a" x="1171" y="80" width="30" height="30"/><rect class="a" x="1171" width="30" height="30"/><rect class="a" x="1201" y="40" width="30" height="30"/><rect class="a" x="1201" y="40" width="30" height="30"/><rect class="a" x="1231" y="80" width="30" height="30"/><rect class="a" x="1231" width="30" height="30"/><rect class="a" x="1261" y="40" width="30" height="30"/><rect class="a" x="1261" y="40" width="30" height="30"/><rect class="a" x="1291" y="80" width="30" height="30"/><rect class="a" x="1291" width="30" height="30"/><rect class="a" x="1321" y="40" width="30" height="30"/><rect class="a" x="1321" y="40" width="30" height="30"/><rect class="a" x="1351" y="80" width="30" height="30"/><rect class="a" x="1351" width="30" height="30"/><rect class="a" x="1381" y="40" width="30" height="30"/><rect class="a" x="1381" y="40" width="30" height="30"/><rect class="a" x="1411" y="80" width="30" height="30"/><rect class="a" x="1411" width="30" height="30"/><rect class="a" x="1441" y="40" width="30" height="30"/><rect class="a" x="1441" y="40" width="30" height="30"/><rect class="a" x="1471" y="80" width="30" height="30"/><rect class="a" x="1471" width="30" height="30"/><rect class="a" x="1501" y="40" width="30" height="30"/><rect class="a" x="1501" y="40" width="30" height="30"/><rect class="a" x="1531" y="80" width="30" height="30"/><rect class="a" x="1531" width="30" height="30"/></svg>