<?xml version="1.0" encoding="UTF-8"?>
<svg width="226px" height="22px" viewBox="0 0 226 22" version="1.1" xmlns="http://www.w3.org/2000/svg" xmlns:xlink="http://www.w3.org/1999/xlink">
    <!-- Generator: Sketch 44.1 (41455) - http://www.bohemiancoding.com/sketch -->
    <title>logo-taxmaro-personal</title>
    <desc>Created with Sketch.</desc>
    <defs></defs>
    <g id="UI" stroke="none" stroke-width="1" fill="none" fill-rule="evenodd">
        <g id="home--subtil" transform="translate(-130.000000, -36.000000)" fill="#222222">
            <g id="header" transform="translate(130.000000, 32.000000)">
                <g id="logo-taxmaro-personal" transform="translate(0.000000, 4.000000)">
                    <path d="M166.801829,17.0179078 C167.281522,17.0179078 167.62675,16.9024834 167.837524,16.6716312 C168.048298,16.440779 168.153684,16.1183236 168.153684,15.7042553 C168.153684,15.5210393 168.126429,15.3543152 168.071918,15.204078 C168.017408,15.0538408 167.934735,14.9246755 167.823897,14.816578 C167.713058,14.7084805 167.57315,14.6251185 167.404167,14.5664894 C167.235185,14.5078602 167.034407,14.4785461 166.801829,14.4785461 L165.842448,14.4785461 L165.842448,17.0179078 L166.801829,17.0179078 Z M166.801829,13.0879433 C167.36147,13.0879433 167.842065,13.1548161 168.243626,13.2885638 C168.645187,13.4223115 168.975879,13.6064409 169.235713,13.8409574 C169.495547,14.075474 169.687239,14.3521261 169.810797,14.670922 C169.934354,14.9897179 169.996132,15.3341589 169.996132,15.7042553 C169.996132,16.1036663 169.932537,16.4700929 169.805346,16.8035461 C169.678154,17.1369993 169.483736,17.422812 169.222085,17.6609929 C168.960435,17.8991737 168.628834,18.0851352 168.227273,18.218883 C167.825712,18.3526307 167.350568,18.4195035 166.801829,18.4195035 L165.842448,18.4195035 L165.842448,21.0962766 L164,21.0962766 L164,13.0879433 L166.801829,13.0879433 Z M173.604712,14.5170213 L173.604712,16.3858156 L176.101284,16.3858156 L176.101284,17.7599291 L173.604712,17.7599291 L173.604712,19.6671986 L176.864428,19.6671986 L176.864428,21.0962766 L171.751363,21.0962766 L171.751363,13.0879433 L176.864428,13.0879433 L176.864428,14.5170213 L173.604712,14.5170213 Z M181.399683,16.8530142 C181.650432,16.8530142 181.863929,16.8209518 182.040179,16.7568262 C182.21643,16.6927006 182.360881,16.6038422 182.473536,16.4902482 C182.586191,16.3766543 182.667956,16.2438246 182.718832,16.0917553 C182.769709,15.939686 182.795147,15.7757101 182.795147,15.5998227 C182.795147,15.2480479 182.681585,14.9732279 182.454458,14.7753546 C182.22733,14.5774813 181.875742,14.4785461 181.399683,14.4785461 L180.658344,14.4785461 L180.658344,16.8530142 L181.399683,16.8530142 Z M185.313522,21.0962766 L183.645507,21.0962766 C183.336614,21.0962766 183.114941,20.9790201 182.980482,20.7445035 L181.661333,18.4195035 C181.599554,18.3205669 181.530509,18.2481976 181.454194,18.2023936 C181.377879,18.1565896 181.26886,18.1336879 181.127132,18.1336879 L180.658344,18.1336879 L180.658344,21.0962766 L178.815896,21.0962766 L178.815896,13.0879433 L181.399683,13.0879433 C181.973861,13.0879433 182.463541,13.1474876 182.868736,13.266578 C183.273931,13.3856684 183.604623,13.5514765 183.860823,13.7640071 C184.117023,13.9765377 184.303264,14.2275399 184.419553,14.5170213 C184.535843,14.8065026 184.593986,15.1216295 184.593986,15.4624113 C184.593986,15.7225781 184.559463,15.9680839 184.490417,16.1989362 C184.42137,16.4297884 184.319619,16.6432319 184.185159,16.839273 C184.0507,17.0353142 183.884445,17.2102829 183.68639,17.3641844 C183.488335,17.5180859 183.260303,17.644503 183.002286,17.7434397 C183.122209,17.8057332 183.234863,17.8835988 183.34025,17.977039 C183.445637,18.0704792 183.54012,18.1813232 183.623703,18.3095744 L185.313522,21.0962766 Z M191.189731,14.7148936 C191.13522,14.8028373 191.077985,14.8687941 191.018024,14.912766 C190.958062,14.9567378 190.88084,14.9787234 190.786355,14.9787234 C190.702772,14.9787234 190.612831,14.9521575 190.516529,14.8990248 C190.420227,14.8458922 190.311207,14.7863478 190.189467,14.7203901 C190.067727,14.6544323 189.928727,14.594888 189.772464,14.5417553 C189.6162,14.4886227 189.438135,14.4620567 189.238263,14.4620567 C188.893029,14.4620567 188.635925,14.5362581 188.466942,14.6846631 C188.297959,14.8330681 188.213469,15.0336867 188.213469,15.2865248 C188.213469,15.4477549 188.264345,15.5815006 188.366098,15.6877659 C188.467851,15.7940313 188.6014,15.8856379 188.766749,15.9625886 C188.932097,16.0395394 189.121065,16.1100765 189.333656,16.1742021 C189.546247,16.2383277 189.763377,16.3097809 189.985054,16.3885638 C190.20673,16.4673467 190.42386,16.5598694 190.636452,16.6661347 C190.849043,16.7724 191.03801,16.9079779 191.203359,17.0728723 C191.368707,17.2377668 191.502256,17.4383853 191.604009,17.674734 C191.705762,17.9110827 191.756638,18.1959794 191.756638,18.5294326 C191.756638,18.899529 191.693043,19.2458021 191.565852,19.5682624 C191.438661,19.8907226 191.254236,20.171955 191.012573,20.4119681 C190.770909,20.6519811 190.472922,20.8406908 190.118604,20.9781028 C189.764285,21.1155148 189.361822,21.1842198 188.911201,21.1842198 C188.664086,21.1842198 188.412433,21.15857 188.156234,21.1072695 C187.900034,21.055969 187.652015,20.9835997 187.412168,20.8901595 C187.172322,20.7967194 186.947015,20.6858753 186.736241,20.5576241 C186.525466,20.4293729 186.34195,20.2864665 186.185687,20.1289007 L186.73079,19.260461 C186.774398,19.1981675 186.831633,19.1459517 186.902497,19.103812 C186.973361,19.0616723 187.050583,19.0406028 187.134166,19.0406028 C187.243187,19.0406028 187.353115,19.0754133 187.463953,19.1450354 C187.574791,19.2146575 187.700163,19.2916071 187.840074,19.3758865 C187.979984,19.4601659 188.140788,19.5371155 188.32249,19.6067376 C188.504192,19.6763597 188.718597,19.7111702 188.965711,19.7111702 C189.300043,19.7111702 189.559872,19.6369688 189.745208,19.4885638 C189.930544,19.3401588 190.023211,19.1047297 190.023211,18.7822695 C190.023211,18.5953891 189.972335,18.4433221 189.870582,18.3260638 C189.768829,18.2088055 189.63528,18.1117025 189.469931,18.0347518 C189.304583,17.957801 189.116524,17.8900121 188.90575,17.831383 C188.694976,17.7727538 188.478754,17.7077131 188.257078,17.6362588 C188.035401,17.5648046 187.819179,17.4768622 187.608405,17.3724291 C187.397631,17.2679959 187.209572,17.1305859 187.044224,16.960195 C186.878875,16.7898041 186.745326,16.5772767 186.643573,16.3226064 C186.54182,16.0679361 186.490944,15.7537253 186.490944,15.3799645 C186.490944,15.0794902 186.550905,14.7863489 186.670828,14.5005319 C186.790751,14.2147149 186.967,13.9600484 187.199578,13.7365248 C187.432156,13.5130012 187.717424,13.3343683 188.055389,13.2006206 C188.393355,13.0668729 188.780374,13 189.216459,13 C189.459939,13 189.697056,13.0192374 189.927818,13.0577128 C190.158579,13.0961881 190.377527,13.1529843 190.584667,13.2281028 C190.791807,13.3032214 190.985316,13.3929959 191.165201,13.4974291 C191.345086,13.6018622 191.50589,13.7200348 191.647617,13.8519504 L191.189731,14.7148936 Z M201.454018,17.0893617 C201.454018,17.6683244 201.354992,18.2069715 201.156937,18.7053191 C200.958882,19.2036668 200.679974,19.6369662 200.320204,20.0052305 C199.960434,20.3734947 199.527082,20.6620557 199.020134,20.870922 C198.513185,21.0797882 197.950827,21.1842198 197.33304,21.1842198 C196.715254,21.1842198 196.151987,21.0797882 195.643221,20.870922 C195.134456,20.6620557 194.699287,20.3734947 194.3377,20.0052305 C193.976113,19.6369662 193.696297,19.2036668 193.498242,18.7053191 C193.300187,18.2069715 193.201161,17.6683244 193.201161,17.0893617 C193.201161,16.510399 193.300187,15.9717519 193.498242,15.4734042 C193.696297,14.9750566 193.976113,14.5426732 194.3377,14.1762411 C194.699287,13.809809 195.134456,13.5221642 195.643221,13.3132979 C196.151987,13.1044316 196.715254,13 197.33304,13 C197.950827,13 198.513185,13.1053476 199.020134,13.3160461 C199.527082,13.5267446 199.960434,13.8153055 200.320204,14.1817376 C200.679974,14.5481697 200.958882,14.9805531 201.156937,15.4789007 C201.354992,15.9772483 201.454018,16.5140633 201.454018,17.0893617 Z M199.567962,17.0893617 C199.567962,16.693615 199.517086,16.3372652 199.415333,16.0203014 C199.31358,15.7033376 199.167312,15.4349302 198.976525,15.2150709 C198.785738,14.9952117 198.552255,14.8266554 198.276068,14.7093972 C197.999881,14.5921389 197.685542,14.5335106 197.33304,14.5335106 C196.976905,14.5335106 196.65984,14.5921389 196.381836,14.7093972 C196.103832,14.8266554 195.86944,14.9952117 195.678653,15.2150709 C195.487866,15.4349302 195.341598,15.7033376 195.239845,16.0203014 C195.138092,16.3372652 195.087216,16.693615 195.087216,17.0893617 C195.087216,17.4887727 195.138092,17.8469547 195.239845,18.1639184 C195.341598,18.4808822 195.487866,18.7492897 195.678653,18.9691489 C195.86944,19.1890082 196.103832,19.3566483 196.381836,19.4720744 C196.65984,19.5875006 196.976905,19.6452127 197.33304,19.6452127 C197.685542,19.6452127 197.999881,19.5875006 198.276068,19.4720744 C198.552255,19.3566483 198.785738,19.1890082 198.976525,18.9691489 C199.167312,18.7492897 199.31358,18.4808822 199.415333,18.1639184 C199.517086,17.8469547 199.567962,17.4887727 199.567962,17.0893617 Z M210.290135,13.0879433 L210.290135,21.0962766 L209.330754,21.0962766 C209.189027,21.0962766 209.070014,21.0733749 208.973712,21.0275709 C208.87741,20.9817669 208.782018,20.9020691 208.687533,20.7884751 L204.942676,16.0120567 C204.957212,16.1549652 204.967206,16.2932913 204.972657,16.427039 C204.978108,16.5607867 204.980833,16.6862878 204.980833,16.8035461 L204.980833,21.0962766 L203.356427,21.0962766 L203.356427,13.0879433 L204.32671,13.0879433 C204.406659,13.0879433 204.473888,13.0916075 204.528398,13.0989362 C204.582909,13.1062648 204.631967,13.1200058 204.675576,13.1401596 C204.719184,13.1603133 204.760975,13.1887114 204.80095,13.2253546 C204.840924,13.2619978 204.886349,13.3114654 204.937225,13.3737589 L208.714788,18.183156 C208.696618,18.0292545 208.683899,17.8799357 208.676631,17.735195 C208.669363,17.5904543 208.665729,17.4539604 208.665729,17.3257092 L208.665729,13.0879433 L210.290135,13.0879433 Z M216.842272,18.0347518 L216.106383,15.8416667 C216.051872,15.7024225 215.993729,15.5384466 215.93195,15.349734 C215.870171,15.1610215 215.808394,14.9567387 215.746615,14.7368794 C215.692105,14.960403 215.633961,15.167434 215.572182,15.3579787 C215.510404,15.5485234 215.45226,15.7134154 215.397749,15.8526596 L214.667311,18.0347518 L216.842272,18.0347518 Z M219.769474,21.0962766 L218.341305,21.0962766 C218.181407,21.0962766 218.052401,21.0587178 217.954282,20.9835993 C217.856163,20.9084807 217.781666,20.8122937 217.73079,20.6950354 L217.262001,19.2989361 L214.242131,19.2989361 L213.773343,20.6950354 C213.733368,20.7976364 213.661597,20.8901591 213.558027,20.9726064 C213.454457,21.0550536 213.326359,21.0962766 213.17373,21.0962766 L211.734658,21.0962766 L214.809038,13.0879433 L216.695094,13.0879433 L219.769474,21.0962766 Z M226,19.612234 L226,21.0962766 L221.213997,21.0962766 L221.213997,13.0879433 L223.056445,13.0879433 L223.056445,19.612234 L226,19.612234 Z" id="Personal"></path>
                    <path d="M157.007386,3.4139358e-15 C159.813885,3.4139358e-15 162,2.25 162,4.98529412 C162,7.70588235 159.799114,10 156.977843,10 C154.171344,10 152,7.73529412 152,5.01470588 C152,2.29411765 154.186115,3.4139358e-15 157.007386,3.4139358e-15 Z M156.977843,8.82352941 C159.149188,8.82352941 160.833087,7.07352941 160.833087,4.98529412 C160.833087,2.89705882 159.163959,1.17647059 157.007386,1.17647059 C154.836041,1.17647059 153.181684,2.92647059 153.181684,5.01470588 C153.181684,7.10294118 154.82127,8.82352941 156.977843,8.82352941 Z M159.104874,4.11764706 C159.104874,4.83823529 158.794682,5.36764706 158.248154,5.64705882 L159.252585,7.19117647 L157.908419,7.19117647 L157.199409,5.86764706 L156.268833,5.86764706 L156.268833,7.19117647 L155.10192,7.19117647 L155.10192,2.48529412 L157.140325,2.48529412 C158.395864,2.48529412 159.104874,3.07352941 159.104874,4.11764706 Z M156.268833,4.95588235 L157.140325,4.95588235 C157.672083,4.95588235 157.982275,4.66176471 157.982275,4.16176471 C157.982275,3.66176471 157.672083,3.38235294 157.140325,3.38235294 L156.268833,3.38235294 L156.268833,4.95588235 Z" id="®"></path>
                    <path d="M14.7065469,6.69487646 L14.7065469,3.12398914 L0,3.12398914 L0,6.69487646 L5.13991357,6.69487646 L5.13991357,20.507267 L9.51744761,20.507267 L9.51744761,6.69487646 L14.7065469,6.69487646 Z M29.4458845,17.3083471 L21.9204609,17.3083471 L20.6662236,20.507267 L16.1657251,20.507267 L23.5927772,3.14878697 L28.0932757,3.14878697 L35.3481776,20.507267 L30.6755289,20.507267 L29.4458845,17.3083471 Z M28.1670544,13.9606402 L25.7077656,7.53800263 L23.199291,13.9606402 L28.1670544,13.9606402 Z M50.2104797,11.4312617 L55.8914368,3.14878697 L50.7515232,3.14878697 L47.4314833,8.20754401 L44.1114435,3.14878697 L39.0207157,3.14878697 L44.7754514,11.6296444 L38.6272295,20.507267 L43.7179573,20.507267 L47.4314833,14.9773512 L51.1450094,20.507267 L56.3832945,20.507267 L50.2104797,11.4312617 Z M80.4679295,20.507267 L80.4679295,3.12398914 L75.6969093,3.12398914 L71.0242606,13.4646837 L66.3516119,3.12398914 L61.5559987,3.12398914 L61.5559987,20.507267 L65.4662679,20.507267 L65.4662679,9.22425498 L69.5978731,18.771419 L72.4506481,18.771419 L76.5822532,9.22425498 L76.6068461,20.507267 L80.4679295,20.507267 Z M98.6502714,17.3083471 L91.1248477,17.3083471 L89.8706104,20.507267 L85.370112,20.507267 L92.7971641,3.14878697 L97.2976626,3.14878697 L104.552564,20.507267 L99.8799158,20.507267 L98.6502714,17.3083471 Z M97.3714412,13.9606402 L94.9121525,7.53800263 L92.4036779,13.9606402 L97.3714412,13.9606402 Z M119.808353,20.507267 L117.250692,15.6220948 L113.807688,15.6220948 L113.807688,20.507267 L109.430154,20.507267 L109.430154,3.14878697 L117.127728,3.14878697 C121.677412,3.14878697 124.284258,5.33099589 124.284258,9.19945715 C124.284258,11.8528248 123.177578,13.7622576 121.160962,14.7789686 L124.776116,20.507267 L119.808353,20.507267 Z M113.807688,12.1503988 L117.127728,12.1503988 C119.02138,12.1503988 120.12806,11.1832834 120.12806,9.34824412 C120.12806,7.53800263 119.02138,6.62048298 117.127728,6.62048298 L113.807688,6.62048298 L113.807688,12.1503988 Z M138.679295,3 C144.015952,3 148,6.76926995 148,11.8032292 C148,16.8619862 144.015952,20.7056496 138.679295,20.7056496 C133.367232,20.7056496 129.383184,16.886784 129.383184,11.8032292 C129.383184,6.74447212 133.367232,3 138.679295,3 Z M138.728481,6.69487646 C136.072449,6.69487646 133.859089,8.90188321 133.859089,11.828027 C133.859089,14.7541708 136.097042,17.0107732 138.728481,17.0107732 C141.384513,17.0107732 143.499502,14.7541708 143.499502,11.828027 C143.499502,8.90188321 141.384513,6.69487646 138.728481,6.69487646 Z" id="TAXMARO"></path>
                </g>
            </g>
        </g>
    </g>
</svg>